<?xml version="1.0" encoding="UTF-8"?>
<svg xmlns="http://www.w3.org/2000/svg" viewBox="0 0 841 811">
  <path d="M840,600 L840,607 Z" fill="black" stroke="black" stroke-width="1"/>
  <path d="M0,0 L0,46 L2,44 L7,44 L8,45 L8,47 L7,48 L0,48 L0,284 L1,284 L3,286 L3,287 L2,288 L0,288 L0,365 L2,365 L3,364 L4,364 L4,363 L5,362 L5,360 L6,359 L7,359 L7,357 L8,356 L15,356 L16,357 L16,367 L15,368 L0,368 L0,442 L1,442 L4,439 L7,439 L7,433 L8,432 L10,432 L11,431 L23,431 L23,430 L25,428 L31,428 L31,425 L32,424 L33,424 L34,423 L39,423 L39,421 L40,420 L47,420 L47,415 L48,414 L49,414 L50,413 L51,413 L52,412 L77,412 L80,415 L79,416 L72,416 L72,431 L71,432 L64,432 L63,431 L63,424 L56,424 L56,431 L55,432 L32,432 L32,439 L31,440 L16,440 L16,447 L15,448 L8,448 L7,447 L7,445 L6,445 L5,446 L5,447 L4,448 L0,448 L0,471 L15,471 L16,472 L16,474 L15,475 L0,475 L0,521 L2,519 L7,519 L8,520 L8,527 L7,528 L0,528 L0,553 L7,553 L7,552 L8,551 L15,551 L16,552 L16,553 L14,555 L8,555 L8,556 L7,557 L0,557 L0,631 L7,631 L8,632 L8,634 L7,635 L0,635 L0,679 L2,679 L2,678 L6,674 L7,674 L7,670 L9,668 L23,668 L23,666 L24,665 L25,665 L27,663 L34,663 L34,662 L38,658 L39,658 L39,657 L41,655 L50,655 L50,654 L54,650 L55,650 L55,648 L56,647 L71,647 L72,648 L72,663 L71,664 L48,664 L48,671 L47,672 L16,672 L16,679 L15,680 L8,680 L8,684 L7,685 L0,685 L0,711 L7,711 L8,712 L8,714 L7,715 L0,715 L0,759 L2,759 L2,758 L6,754 L7,754 L7,751 L10,748 L23,748 L24,749 L24,751 L23,752 L16,752 L16,759 L15,760 L8,760 L8,767 L7,768 L0,768 L0,791 L7,791 L8,792 L8,794 L7,795 L0,795 L0,810 L840,810 L840,771 L839,770 L839,768 L840,767 L840,691 L839,690 L839,688 L840,687 L840,611 L840,614 L839,615 L838,615 L837,616 L832,616 L831,615 L831,600 L824,600 L823,599 L823,592 L808,592 L807,591 L807,589 L808,588 L815,588 L815,584 L816,583 L823,583 L823,581 L824,580 L831,580 L831,576 L832,575 L839,575 L840,574 L840,531 L840,534 L838,536 L832,536 L831,535 L831,528 L832,527 L839,527 L839,520 L824,520 L823,519 L823,501 L824,500 L831,500 L831,496 L832,495 L840,495 L840,440 L832,440 L832,447 L831,448 L808,448 L808,455 L807,456 L784,456 L784,463 L783,464 L768,464 L768,471 L767,472 L760,472 L759,471 L759,464 L752,464 L751,463 L751,461 L752,460 L759,460 L759,457 L760,456 L762,456 L763,455 L775,455 L775,453 L774,453 L772,451 L772,448 L773,447 L775,447 L775,445 L776,444 L791,444 L791,436 L792,435 L792,434 L794,432 L795,432 L796,431 L807,431 L809,429 L810,429 L811,428 L815,428 L815,426 L817,424 L819,424 L820,423 L823,423 L823,421 L824,420 L831,420 L831,417 L833,415 L840,415 L840,280 L832,280 L832,287 L831,288 L808,288 L807,287 L807,280 L808,279 L823,279 L823,269 L822,269 L821,270 L821,271 L820,272 L811,272 L810,271 L810,270 L814,266 L817,266 L819,264 L820,264 L821,263 L823,263 L823,262 L824,261 L825,261 L826,260 L831,260 L832,261 L832,263 L839,263 L840,264 L840,268 L840,217 L840,218 L839,219 L824,219 L823,218 L823,216 L824,215 L831,215 L831,208 L832,207 L840,207 L840,184 L832,184 L831,183 L831,181 L832,180 L840,180 L840,139 L832,139 L831,138 L831,136 L832,135 L840,135 L840,104 L840,111 L839,112 L832,112 L832,127 L831,128 L808,128 L808,135 L807,136 L776,136 L776,143 L775,144 L763,144 L762,143 L762,142 L766,138 L767,138 L767,136 L768,135 L772,135 L772,129 L774,127 L786,127 L786,126 L790,122 L791,122 L791,119 L792,118 L792,117 L793,116 L807,116 L807,113 L808,112 L810,112 L811,111 L815,111 L815,109 L816,108 L823,108 L823,104 L824,103 L831,103 L831,101 L832,100 L840,100 L840,59 L839,58 L839,56 L840,55 L840,0 L787,0 L787,7 L786,8 L784,8 L783,7 L783,0 L640,0 L640,7 L639,8 L624,8 L623,7 L623,0 L623,7 L622,8 L619,8 L618,7 L618,0 L512,0 L512,7 L511,8 L504,8 L503,7 L503,0 L496,0 L496,7 L495,8 L493,8 L492,7 L492,0 L395,0 L395,7 L394,8 L392,8 L391,7 L391,0 L259,0 L259,7 L258,8 L256,8 L255,7 L255,0 L232,0 L232,7 L231,8 L229,8 L228,7 L228,0 Z" fill="black" stroke="black" stroke-width="1"/>
</svg>