<?xml version="1.0" standalone="no"?>
<!DOCTYPE svg PUBLIC "-//W3C//DTD SVG 20010904//EN"
 "http://www.w3.org/TR/2001/REC-SVG-20010904/DTD/svg10.dtd">
<svg version="1.0" xmlns="http://www.w3.org/2000/svg"
 width="841.000000pt" height="811.000000pt" viewBox="0 0 841.000000 811.000000"
 preserveAspectRatio="xMidYMid meet">

<g transform="translate(0.000000,811.000000) scale(0.100000,-0.100000)"
fill="#000000" stroke="none">
<path d="M4066 6750 c11 -4 -12 -10 -58 -14 -43 -4 -83 -4 -89 0 -7 4 -9 3 -6
-3 3 -5 -18 -8 -56 -7 -61 2 -62 2 -12 -5 l50 -7 -38 -8 c-25 -6 -53 -4 -77 3
-31 9 -54 8 -117 -5 -43 -9 -80 -18 -82 -20 -9 -9 47 -3 99 11 68 18 84 19 77
3 -3 -10 8 -12 42 -9 25 2 43 0 40 -3 -6 -6 -128 -15 -226 -16 l-43 0 0 -115
c0 -94 3 -117 15 -121 8 -4 15 -12 15 -20 0 -10 12 -14 39 -14 31 0 41 -4 46
-20 5 -17 15 -20 58 -20 54 0 134 32 144 56 3 8 13 14 22 14 22 0 90 51 91 68
0 6 11 12 25 12 38 0 89 24 112 54 12 14 31 26 42 26 12 0 33 11 47 25 14 14
32 25 40 25 24 0 54 19 54 35 0 10 10 15 29 15 16 0 44 3 62 7 33 7 33 7 9 14
-22 6 -21 7 10 8 42 2 73 17 50 25 -31 10 -115 16 -95 7 16 -8 11 -10 -22 -10
-31 -1 -43 -5 -43 -16 0 -11 -11 -15 -40 -15 -33 0 -40 3 -40 20 0 16 -7 20
-37 21 -21 1 -65 2 -97 3 -33 1 -51 -1 -40 -4z m-158 -67 c-10 -2 -26 -2 -35
0 -10 3 -2 5 17 5 19 0 27 -2 18 -5z"/>
<path d="M4678 6693 c7 -3 16 -2 19 1 4 3 -2 6 -13 5 -11 0 -14 -3 -6 -6z"/>
<path d="M4528 6683 c6 -2 18 -2 25 0 6 3 1 5 -13 5 -14 0 -19 -2 -12 -5z"/>
<path d="M4880 6640 c0 -5 4 -10 9 -10 6 0 13 5 16 10 3 6 -1 10 -9 10 -9 0
-16 -4 -16 -10z"/>
<path d="M4933 6643 c9 -2 23 -2 30 0 6 3 -1 5 -18 5 -16 0 -22 -2 -12 -5z"/>
<path d="M3380 6630 c-18 -12 -2 -12 25 0 13 6 15 9 5 9 -8 0 -22 -4 -30 -9z"/>
<path d="M4960 6633 c-14 -2 -37 -9 -52 -15 -27 -10 -28 -13 -28 -87 1 -70 3
-79 30 -108 41 -45 81 -63 144 -63 46 0 56 3 61 20 5 16 15 20 46 20 28 0 39
4 39 15 0 8 9 15 20 15 12 0 32 11 45 24 14 14 36 26 49 28 22 3 23 5 11 22
-15 19 -55 24 -96 11 -15 -5 -19 -4 -14 4 5 8 -2 10 -22 6 -15 -3 -21 -2 -13
2 8 3 20 12 27 19 10 10 6 14 -19 23 -38 13 -38 13 -38 1 0 -5 12 -11 28 -11
l27 -1 -30 -7 c-16 -4 -31 -3 -33 1 -2 4 -26 8 -53 8 -41 0 -49 3 -49 19 0 14
-6 17 -27 14 -25 -3 -26 -2 -8 7 20 10 7 9 -90 -5 -29 -5 -28 -4 5 9 19 7 38
11 42 9 5 -2 18 3 30 11 23 16 18 17 -32 9z m335 -123 c3 -5 1 -10 -4 -10 -6
0 -11 5 -11 10 0 6 2 10 4 10 3 0 8 -4 11 -10z"/>
<path d="M3432 6621 c-11 -7 -10 -9 3 -14 9 -4 13 -3 10 2 -3 5 5 12 17 14 20
4 20 4 3 5 -11 1 -26 -2 -33 -7z"/>
<path d="M5026 6621 c5 -5 23 -12 39 -16 30 -6 30 -6 -4 10 -38 17 -49 19 -35
6z"/>
<path d="M3375 6600 c28 -12 37 -12 30 0 -3 6 -16 10 -28 9 -21 0 -21 -1 -2
-9z"/>
<path d="M3213 6543 c9 -2 23 -2 30 0 6 3 -1 5 -18 5 -16 0 -22 -2 -12 -5z"/>
<path d="M2972 6461 c-11 -6 -10 -10 4 -15 9 -3 19 -4 22 -1 3 3 -1 5 -9 5
-11 0 -11 2 1 10 8 5 11 10 5 10 -5 0 -16 -4 -23 -9z"/>
<path d="M5409 6461 c11 -7 11 -9 0 -14 -8 -2 -2 -4 14 -3 24 1 25 2 10 14 -9
6 -22 12 -27 12 -6 0 -5 -4 3 -9z"/>
<path d="M2890 6410 c-13 -8 -12 -10 3 -10 9 0 17 5 17 10 0 12 -1 12 -20 0z"/>
<path d="M5490 6410 c0 -6 7 -10 15 -10 8 0 15 2 15 4 0 2 -7 6 -15 10 -8 3
-15 1 -15 -4z"/>
<path d="M3138 6373 c-10 -2 -18 -9 -18 -14 0 -5 -6 -9 -14 -9 -7 0 -25 -11
-40 -25 -15 -14 -34 -25 -42 -25 -28 0 -64 -32 -64 -56 0 -21 -5 -24 -40 -24
-29 0 -40 -4 -40 -15 0 -12 -15 -15 -72 -15 l-73 -1 -47 -48 c-27 -27 -48 -56
-48 -65 0 -13 -12 -16 -72 -16 -70 0 -110 -11 -96 -26 4 -3 -11 -25 -32 -48
-22 -22 -40 -47 -40 -53 0 -16 -71 -18 -88 -3 -6 6 -10 7 -7 4 3 -4 0 -14 -7
-21 -9 -11 -9 -16 2 -23 8 -5 11 -12 7 -17 -5 -4 -12 -1 -18 7 -8 13 -10 13
-18 1 -8 -12 -12 -12 -24 -2 -12 9 -17 9 -23 0 -4 -7 -3 -9 4 -5 7 4 10 -2 10
-16 -1 -13 -1 -51 0 -85 2 -49 5 -63 17 -63 11 0 15 -11 15 -37 1 -69 13 -75
147 -74 120 2 143 9 143 42 0 15 8 19 39 19 22 0 41 3 43 8 2 4 20 15 41 24
28 14 37 24 37 43 0 23 4 25 40 25 29 0 40 4 40 15 0 10 10 15 33 15 24 0 41
9 68 39 38 40 51 44 183 60 50 6 62 12 87 41 59 72 85 96 127 114 43 19 62 41
62 70 0 8 14 28 30 44 27 28 30 37 30 95 0 81 -6 97 -36 97 -15 0 -24 6 -24
15 0 12 -18 15 -102 14 -57 -1 -111 -3 -120 -6z"/>
<path d="M4480 6365 c0 -10 -10 -15 -29 -15 -16 0 -36 -6 -43 -12 -7 -7 -30
-21 -50 -30 -21 -10 -38 -22 -38 -28 0 -5 -7 -10 -15 -10 -24 0 -92 -37 -107
-59 -9 -13 -31 -21 -76 -26 -34 -4 -62 -11 -62 -16 0 -5 -13 -9 -30 -9 -16 0
-30 -4 -30 -10 0 -5 -18 -15 -40 -21 -23 -7 -36 -15 -31 -18 5 -4 3 -15 -6
-26 -13 -16 -15 -17 -10 -2 8 21 9 21 -43 2 -54 -19 -74 -19 -35 1 17 8 22 12
12 9 -10 -3 -36 -5 -58 -5 -32 0 -39 -3 -39 -20 0 -17 5 -18 48 -13 34 4 58 1
80 -11 39 -20 43 -20 35 2 -3 9 -3 14 1 11 4 -4 8 -16 11 -27 2 -11 8 -30 14
-41 15 -27 14 -100 -2 -131 -7 -14 -27 -32 -44 -41 -18 -9 -30 -18 -28 -21 3
-2 -17 -1 -43 2 -53 8 -113 32 -114 46 -1 20 -11 34 -19 28 -6 -3 -7 5 -3 20
4 16 2 26 -5 26 -6 0 -11 -4 -11 -10 0 -5 -16 -10 -35 -10 -24 0 -35 -5 -35
-15 0 -8 -4 -15 -9 -15 -11 0 -71 -58 -71 -69 0 -4 -14 -8 -32 -9 l-31 -3 6
118 c4 66 11 119 17 121 5 2 10 21 10 43 0 38 -1 39 -34 39 l-34 0 -7 -80 c-8
-89 2 -240 16 -240 5 0 9 -7 9 -15 0 -8 9 -15 20 -15 11 0 20 -4 20 -10 0 -14
27 -12 33 3 4 10 6 10 6 0 1 -8 16 -13 41 -13 22 0 40 -4 40 -10 0 -5 -5 -10
-11 -10 -5 0 -7 -5 -3 -11 4 -8 0 -9 -15 -4 -15 4 -19 3 -16 -7 3 -7 -4 -19
-15 -25 -18 -12 -19 -11 -10 12 8 20 6 25 -6 25 -12 0 -14 -14 -12 -82 2 -57
7 -83 16 -84 6 -1 17 -2 23 -3 6 0 8 -8 5 -17 -6 -14 -4 -15 9 -4 13 11 13 15
3 21 -10 7 -10 9 1 9 10 0 11 3 2 14 -13 15 -4 99 13 120 6 8 38 16 76 19 36
2 60 3 53 0 -9 -3 -6 -11 7 -26 20 -21 17 -33 -10 -39 -20 -4 -39 -21 -33 -31
2 -4 11 0 19 8 9 8 20 15 25 15 6 0 3 -7 -6 -16 -15 -15 -15 -18 -1 -32 13
-13 18 -13 33 -2 15 12 16 12 6 0 -16 -17 -17 -47 -2 -56 8 -4 9 1 4 16 -6 18
-4 22 8 17 12 -5 15 7 14 71 -1 82 14 130 32 102 5 -8 7 -18 5 -22 -3 -4 2 -8
10 -8 9 0 13 -6 10 -14 -3 -8 0 -17 7 -22 9 -5 10 -2 6 10 -5 12 -3 16 5 13 7
-2 12 -16 10 -30 -3 -26 10 -40 39 -42 10 -1 15 5 12 14 -2 9 1 30 5 46 l9 30
12 -35 11 -35 -5 39 c-2 21 -2 36 1 33 4 -3 17 -2 30 3 13 5 26 5 29 0 3 -4
-1 -10 -7 -13 -7 -2 -10 -8 -6 -12 10 -10 38 13 38 31 0 7 -7 17 -16 22 -12 6
-15 18 -12 35 3 15 1 24 -3 21 -5 -3 -9 3 -9 13 -1 17 -1 17 -11 1 -5 -10 -15
-18 -21 -18 -6 0 -16 -7 -23 -16 -11 -15 -12 -15 -12 0 0 8 10 19 21 22 36 12
43 34 44 138 0 64 -3 95 -8 86 -6 -9 -10 -10 -10 -3 0 15 40 44 52 37 4 -3 8
-47 8 -99 0 -100 0 -100 65 -110 6 0 18 -5 28 -9 31 -15 50 1 45 39 -3 26 -1
32 8 24 8 -7 10 -19 4 -39 -8 -29 2 -50 14 -31 11 17 4 156 -8 164 -8 5 -7 9
2 15 7 5 10 16 7 24 -8 20 13 34 28 19 7 -7 12 -24 12 -39 0 -16 5 -26 13 -24
6 1 12 -2 12 -8 0 -5 -4 -10 -10 -10 -5 0 -10 -7 -10 -15 0 -12 14 -15 65 -14
l65 1 0 60 c0 59 0 59 28 56 25 -3 27 -6 30 -58 4 -75 22 -89 24 -19 l1 54 7
-60 c4 -33 7 -52 8 -42 1 10 6 16 11 13 10 -7 21 27 21 67 0 20 6 30 20 34 11
3 20 12 20 19 0 8 4 14 10 14 5 0 7 -7 4 -15 -4 -9 0 -15 10 -15 9 0 16 -8 16
-19 0 -11 3 -27 7 -37 6 -16 7 -16 12 -1 5 12 9 6 18 -21 10 -33 10 -35 -3
-18 -21 29 -17 6 6 -31 19 -32 40 -44 40 -23 0 6 -5 9 -11 8 -14 -4 -22 111
-9 127 5 6 5 16 0 25 -12 18 -13 30 -2 29 19 -3 25 2 12 11 -11 8 -9 9 10 5
47 -11 61 20 67 138 6 101 5 104 -18 120 -33 24 -229 25 -229 2z m-80 -190 c0
-11 -11 -15 -40 -15 -29 0 -40 4 -40 15 0 11 11 15 40 15 29 0 40 -4 40 -15z
m-374 -78 c4 -4 -2 -7 -14 -7 -11 0 -24 5 -27 10 -7 11 30 8 41 -3z m159 3
c-3 -5 -11 -10 -16 -10 -6 0 -7 5 -4 10 3 6 11 10 16 10 6 0 7 -4 4 -10z m405
-15 c0 -7 10 -19 22 -27 13 -9 19 -19 14 -27 -6 -9 -14 -4 -27 18 -12 20 -30
34 -49 38 -42 8 -38 20 5 15 19 -2 35 -10 35 -17z m30 15 c0 -5 -2 -10 -4 -10
-3 0 -8 5 -11 10 -3 6 -1 10 4 10 6 0 11 -4 11 -10z m-406 -15 c-4 -8 -8 -15
-10 -15 -2 0 -4 7 -4 15 0 8 4 15 10 15 5 0 7 -7 4 -15z m-238 -6 c10 -17 -13
-36 -27 -22 -12 12 -4 33 11 33 5 0 12 -5 16 -11z m511 -21 c-3 -7 -5 -2 -5
12 0 14 2 19 5 13 2 -7 2 -19 0 -25z m-307 2 c0 -11 -4 -20 -8 -20 -4 0 -8 9
-8 20 0 11 4 20 8 20 4 0 8 -9 8 -20z m350 16 c0 -3 -4 -8 -10 -11 -5 -3 -10
-1 -10 4 0 6 5 11 10 11 6 0 10 -2 10 -4z m-454 -18 c4 -7 3 -8 -4 -4 -7 4
-12 0 -12 -10 0 -10 -3 -15 -6 -11 -7 6 2 37 10 37 3 0 8 -5 12 -12z m258 -23
c3 -8 1 -15 -4 -15 -6 0 -10 7 -10 15 0 8 2 15 4 15 2 0 6 -7 10 -15z m26 -25
c0 -22 -2 -40 -4 -40 -2 0 -6 18 -8 40 -2 22 0 40 4 40 5 0 8 -18 8 -40z m128
5 c-3 -3 -9 2 -12 12 -6 14 -5 15 5 6 7 -7 10 -15 7 -18z m-528 -20 c0 -5 -5
-3 -10 5 -5 8 -10 20 -10 25 0 6 5 3 10 -5 5 -8 10 -19 10 -25z m173 18 c-3
-7 -6 -13 -8 -13 -2 0 -5 6 -8 13 -3 8 1 14 8 14 7 0 11 -6 8 -14z m52 -83 c3
-5 1 -10 -4 -10 -6 0 -11 5 -11 10 0 6 2 10 4 10 3 0 8 -4 11 -10z m-113 -34
c2 -19 0 -32 -4 -30 -8 5 -12 64 -4 64 2 0 6 -15 8 -34z m-25 -13 c-3 -10 -5
-4 -5 12 0 17 2 24 5 18 2 -7 2 -21 0 -30z m-117 -69 c0 -8 -5 -12 -10 -9 -6
4 -8 11 -5 16 9 14 15 11 15 -7z m-220 -8 c0 -2 -7 -7 -16 -10 -8 -3 -12 -2
-9 4 6 10 25 14 25 6z m-80 -20 c0 -2 -7 -9 -15 -16 -12 -10 -15 -10 -15 4 0
9 7 16 15 16 8 0 15 -2 15 -4z m265 -76 c-3 -5 -1 -10 4 -10 6 0 11 -7 11 -15
0 -8 -4 -15 -10 -15 -5 0 -10 7 -10 15 0 9 -10 15 -22 16 -22 1 -22 1 2 9 14
4 26 8 28 9 2 1 0 -3 -3 -9z m-145 -31 c0 -5 5 -7 10 -4 6 3 10 2 10 -4 0 -19
-16 -19 -28 0 -7 11 -8 19 -2 19 5 0 10 -5 10 -11z m-203 -51 c-3 -7 -5 -2 -5
12 0 14 2 19 5 13 2 -7 2 -19 0 -25z m216 5 c10 -9 -23 -43 -41 -43 -11 0 -9
5 7 19 16 14 18 21 9 24 -9 4 -8 6 3 6 9 1 19 -2 22 -6z m-209 -83 c-3 -2 -9
2 -14 10 -8 13 -10 13 -10 1 0 -8 -2 -12 -5 -9 -3 3 -3 13 1 22 6 15 7 15 19
-1 8 -10 11 -20 9 -23z"/>
<path d="M2782 6316 c7 -8 15 -12 17 -11 5 6 -10 25 -20 25 -5 0 -4 -6 3 -14z"/>
<path d="M5631 6291 c-7 -5 -9 -11 -5 -13 5 -3 3 -3 -5 -1 -17 4 -100 -57
-101 -74 0 -9 -21 -13 -67 -14 -38 -1 -79 -4 -93 -8 -27 -7 -79 -75 -80 -103
0 -15 -10 -18 -68 -18 -66 0 -92 -10 -92 -36 0 -14 -57 -74 -71 -74 -5 0 -9
-7 -9 -15 0 -11 -12 -15 -49 -15 -40 0 -53 -5 -68 -23 -10 -13 -25 -26 -33
-29 -11 -3 -14 -24 -11 -98 2 -83 6 -98 29 -129 31 -42 43 -52 54 -45 4 3 8 0
8 -5 0 -7 27 -11 70 -11 40 0 70 4 70 10 0 6 15 10 34 10 19 0 37 4 40 8 3 5
35 24 72 42 36 19 68 40 71 47 3 7 11 13 19 13 8 0 14 7 14 15 0 10 11 15 35
15 29 0 36 4 41 25 5 20 12 25 38 25 23 0 40 10 68 39 35 37 42 40 110 46 81
7 132 26 151 56 6 10 17 19 24 19 7 0 13 5 13 11 0 6 23 34 51 61 40 39 48 52
38 59 -12 8 -12 10 0 18 18 12 -1 23 -48 27 -26 2 -32 1 -21 -6 13 -8 12 -10
-2 -10 -20 0 -23 17 -9 39 8 12 12 13 25 1 9 -7 19 -10 22 -7 3 3 -4 11 -17
17 -19 11 -24 10 -35 -5 -15 -21 -29 -13 -55 29 -10 17 -19 25 -19 17 0 -11
-5 -9 -21 5 -31 28 -43 55 -29 64 8 5 7 9 -5 13 -10 4 -14 3 -9 -4 7 -12 -33
-3 -51 12 -6 4 -17 4 -24 0z m68 -88 c1 -7 -3 -13 -9 -13 -5 0 -10 15 -9 33 0
27 2 29 9 12 5 -11 9 -26 9 -32z m-739 -509 c0 -17 -22 -14 -28 4 -2 7 3 12
12 12 9 0 16 -7 16 -16z"/>
<path d="M2655 6250 c-3 -5 -1 -10 4 -10 6 0 11 5 11 10 0 6 -2 10 -4 10 -3 0
-8 -4 -11 -10z"/>
<path d="M2589 6213 c-13 -16 -12 -17 4 -4 16 13 21 21 13 21 -2 0 -10 -8 -17
-17z"/>
<path d="M2616 6205 c-11 -8 -15 -15 -9 -15 6 0 16 7 23 15 16 19 11 19 -14 0z"/>
<path d="M2509 6153 c-13 -17 -13 -17 6 -3 11 8 22 16 24 17 2 2 0 3 -6 3 -6
0 -17 -8 -24 -17z"/>
<path d="M2534 6138 l-19 -23 23 19 c21 18 27 26 19 26 -2 0 -12 -10 -23 -22z"/>
<path d="M3520 6095 c0 -12 15 -15 76 -15 54 0 80 4 90 15 14 13 5 15 -75 15
-74 0 -91 -3 -91 -15z"/>
<path d="M4762 6101 c-11 -6 -10 -10 4 -15 9 -3 19 -4 22 -1 3 3 0 5 -7 5 -7
0 -9 5 -6 10 7 12 4 12 -13 1z"/>
<path d="M2430 6085 c-19 -22 -8 -25 13 -3 9 10 13 18 8 18 -5 0 -14 -7 -21
-15z"/>
<path d="M3691 6076 c-9 -10 -7 -15 9 -19 25 -6 32 4 15 20 -10 10 -16 9 -24
-1z"/>
<path d="M4676 6082 c-3 -4 4 -9 15 -9 23 -2 25 3 4 10 -8 4 -16 3 -19 -1z"/>
<path d="M5950 6082 c0 -4 9 -13 20 -20 23 -14 26 -7 6 14 -16 15 -26 18 -26
6z"/>
<path d="M4808 6073 c7 -3 16 -2 19 1 4 3 -2 6 -13 5 -11 0 -14 -3 -6 -6z"/>
<path d="M3563 6063 c20 -2 54 -2 75 0 20 2 3 4 -38 4 -41 0 -58 -2 -37 -4z"/>
<path d="M4836 6061 c-4 -6 -14 -7 -24 -4 -18 7 -17 5 12 -17 11 -8 17 -10 13
-3 -4 6 -1 13 5 16 7 2 10 7 7 11 -4 4 -10 3 -13 -3z"/>
<path d="M3708 6043 c-16 -2 -28 -9 -28 -14 0 -6 -13 -15 -30 -20 -36 -13 -39
-26 -6 -35 13 -3 29 -15 35 -27 l12 -22 -5 23 c-2 12 -1 22 4 22 4 0 10 8 13
18 4 9 14 27 23 40 9 12 15 21 13 21 -2 -1 -16 -4 -31 -6z"/>
<path d="M4857 6027 c-3 -8 1 -14 8 -14 7 0 11 6 8 14 -3 7 -6 13 -8 13 -2 0
-5 -6 -8 -13z"/>
<path d="M3785 6009 c-39 -11 -55 -34 -55 -79 0 -41 20 -75 50 -83 28 -7 25 4
-10 32 -31 24 -39 62 -20 91 8 11 9 7 5 -15 -7 -46 1 -63 30 -57 14 2 25 9 25
14 0 16 26 -15 32 -39 4 -17 2 -20 -11 -16 -13 4 -13 3 1 -7 21 -13 52 0 68
30 14 26 13 70 -2 70 -9 0 -8 3 2 10 13 8 13 11 -2 27 -23 23 -41 6 -40 -38 0
-17 -2 -28 -5 -25 -3 3 -6 20 -5 37 1 26 -2 30 -19 26 -10 -3 -22 -1 -25 5 -4
6 6 8 25 7 17 -2 32 0 33 5 4 12 -41 15 -77 5z m10 -49 c-3 -5 -10 -10 -16
-10 -5 0 -9 5 -9 10 0 6 7 10 16 10 8 0 12 -4 9 -10z"/>
<path d="M4768 6003 c7 -3 16 -2 19 1 4 3 -2 6 -13 5 -11 0 -14 -3 -6 -6z"/>
<path d="M4792 5991 c-11 -7 -11 -9 0 -14 9 -3 15 1 15 9 0 8 -1 14 -1 14 -1
0 -7 -4 -14 -9z"/>
<path d="M4830 5990 c-13 -8 -13 -10 2 -10 9 0 20 5 23 10 8 13 -5 13 -25 0z"/>
<path d="M4532 5957 c-16 -45 -14 -59 4 -22 l15 30 -6 -40 c-5 -34 -4 -37 6
-20 12 19 12 19 20 0 7 -20 8 -20 8 0 0 11 -8 35 -17 53 l-18 33 -12 -34z"/>
<path d="M6050 5980 c0 -5 5 -10 10 -10 6 0 10 5 10 10 0 6 -4 10 -10 10 -5 0
-10 -4 -10 -10z"/>
<path d="M2370 5970 c0 -5 5 -10 10 -10 6 0 10 5 10 10 0 6 -4 10 -10 10 -5 0
-10 -4 -10 -10z"/>
<path d="M4842 5955 c-12 -14 -19 -25 -16 -25 4 0 17 11 30 25 13 14 20 25 15
25 -4 0 -17 -11 -29 -25z"/>
<path d="M6015 5970 c-3 -5 -1 -10 4 -10 6 0 11 5 11 10 0 6 -2 10 -4 10 -3 0
-8 -4 -11 -10z"/>
<path d="M6076 5963 c-6 -14 -5 -15 5 -6 7 7 10 15 7 18 -3 3 -9 -2 -12 -12z"/>
<path d="M4770 5960 c-9 -6 -10 -10 -3 -10 6 0 15 5 18 10 8 12 4 12 -15 0z"/>
<path d="M4674 5948 c-4 -7 -4 -10 1 -6 4 4 14 0 21 -10 7 -9 14 -15 17 -12 2
3 -4 13 -13 23 -14 15 -20 16 -26 5z"/>
<path d="M4867 5947 c-3 -8 -2 -20 3 -26 5 -9 8 -4 8 13 0 29 -3 32 -11 13z"/>
<path d="M4660 5925 c0 -2 11 -11 24 -20 18 -12 29 -13 47 -5 24 10 24 10 -2
5 -17 -3 -31 1 -39 10 -12 14 -30 20 -30 10z"/>
<path d="M6120 5926 c0 -2 8 -10 18 -17 15 -13 16 -12 3 4 -13 16 -21 21 -21
13z"/>
<path d="M4410 5910 c0 -5 5 -10 11 -10 5 0 7 5 4 10 -3 6 -8 10 -11 10 -2 0
-4 -4 -4 -10z"/>
<path d="M4840 5916 c0 -2 8 -10 18 -17 15 -13 16 -12 3 4 -13 16 -21 21 -21
13z"/>
<path d="M4236 5895 c4 -8 15 -15 26 -15 10 0 16 5 13 10 -15 24 22 7 45 -20
14 -16 29 -30 35 -30 6 0 6 3 -1 8 -6 4 -16 17 -23 30 -10 18 -9 22 4 22 9 0
13 -4 10 -10 -3 -5 1 -10 9 -10 9 0 16 7 16 15 0 12 -14 15 -70 15 -58 0 -68
-3 -64 -15z"/>
<path d="M4440 5891 c0 -25 6 -27 13 -6 4 8 2 17 -3 20 -6 4 -10 -3 -10 -14z"/>
<path d="M6115 5890 c3 -5 8 -10 11 -10 2 0 4 5 4 10 0 6 -5 10 -11 10 -5 0
-7 -4 -4 -10z"/>
<path d="M4640 5873 c0 -7 8 -17 18 -22 14 -8 18 -5 19 12 2 17 0 19 -7 7 -9
-13 -11 -13 -20 0 -6 9 -10 11 -10 3z"/>
<path d="M4855 5870 c-3 -5 -1 -10 4 -10 6 0 11 5 11 10 0 6 -2 10 -4 10 -3 0
-8 -4 -11 -10z"/>
<path d="M4417 5853 c-7 -12 10 -50 25 -59 11 -6 11 -5 0 9 -8 9 -11 21 -7 27
3 5 1 10 -5 10 -6 0 -8 5 -5 10 3 6 4 10 1 10 -3 0 -7 -3 -9 -7z"/>
<path d="M4540 5848 c0 -4 4 -8 9 -8 6 0 12 4 15 8 3 5 -1 9 -9 9 -8 0 -15 -4
-15 -9z"/>
<path d="M4760 5850 c0 -5 5 -10 10 -10 6 0 10 5 10 10 0 6 -4 10 -10 10 -5 0
-10 -4 -10 -10z"/>
<path d="M6163 5840 c-1 -10 5 -21 13 -24 8 -3 14 -10 14 -17 0 -6 -7 -9 -15
-5 -12 4 -15 -4 -15 -39 0 -41 2 -45 25 -45 23 0 25 -4 25 -40 0 -29 4 -40 15
-40 8 0 15 -7 15 -15 0 -10 10 -15 33 -15 17 0 43 -3 56 -7 22 -5 23 -4 19 21
-4 21 -2 26 9 21 22 -8 -20 57 -45 70 -10 6 -17 16 -14 23 5 17 -15 15 -22 -3
-3 -8 -11 -15 -17 -15 -7 0 -6 8 4 24 15 22 15 24 -3 29 -11 3 -20 11 -20 19
0 10 3 9 10 -2 5 -8 10 -10 10 -4 0 13 -66 77 -83 80 -7 1 -14 -6 -14 -16z
m42 -10 c3 -5 1 -10 -4 -10 -6 0 -11 5 -11 10 0 6 2 10 4 10 3 0 8 -4 11 -10z
m25 -30 c0 -5 -5 -10 -11 -10 -5 0 -7 5 -4 10 3 6 8 10 11 10 2 0 4 -4 4 -10z
m97 -192 c-3 -8 -6 -5 -6 6 -1 11 2 17 5 13 3 -3 4 -12 1 -19z"/>
<path d="M4850 5840 c0 -5 5 -10 11 -10 5 0 7 5 4 10 -3 6 -8 10 -11 10 -2 0
-4 -4 -4 -10z"/>
<path d="M4326 5827 c3 -10 9 -15 12 -12 3 3 0 11 -7 18 -10 9 -11 8 -5 -6z"/>
<path d="M2205 5819 c-11 -16 -1 -19 13 -3 7 8 8 14 3 14 -5 0 -13 -5 -16 -11z"/>
<path d="M4535 5820 c3 -5 8 -10 11 -10 2 0 4 5 4 10 0 6 -5 10 -11 10 -5 0
-7 -4 -4 -10z"/>
<path d="M4660 5821 c0 -6 4 -13 10 -16 6 -3 7 1 4 9 -7 18 -14 21 -14 7z"/>
<path d="M4580 5811 c0 -6 4 -13 10 -16 6 -3 7 1 4 9 -7 18 -14 21 -14 7z"/>
<path d="M4814 5804 c-18 -14 -18 -15 4 -4 12 6 22 13 22 15 0 8 -5 6 -26 -11z"/>
<path d="M2156 5802 c-3 -4 4 -9 15 -9 23 -2 25 3 4 10 -8 4 -16 3 -19 -1z"/>
<path d="M4190 5799 c0 -5 9 -9 20 -9 11 0 20 2 20 4 0 2 -9 6 -20 9 -11 3
-20 1 -20 -4z"/>
<path d="M4351 5800 c-9 -5 -4 -7 13 -7 29 0 32 2 13 10 -8 3 -20 2 -26 -3z"/>
<path d="M4028 5793 c6 -2 18 -2 25 0 6 3 1 5 -13 5 -14 0 -19 -2 -12 -5z"/>
<path d="M4088 5793 c12 -2 32 -2 45 0 12 2 2 4 -23 4 -25 0 -35 -2 -22 -4z"/>
<path d="M2150 5772 c0 -6 -8 -9 -17 -6 -15 5 -15 4 -4 -4 12 -9 12 -13 2 -26
-8 -9 -9 -16 -4 -16 12 0 36 50 28 58 -3 3 -5 0 -5 -6z"/>
<path d="M4065 5760 c3 -5 8 -10 11 -10 2 0 4 5 4 10 0 6 -5 10 -11 10 -5 0
-7 -4 -4 -10z"/>
<path d="M2105 5739 c-4 -6 -5 -12 -2 -15 2 -3 7 2 10 11 7 17 1 20 -8 4z"/>
<path d="M4245 5700 c-3 -5 -1 -10 4 -10 6 0 11 5 11 10 0 6 -2 10 -4 10 -3 0
-8 -4 -11 -10z"/>
<path d="M4267 5691 c-4 -17 -3 -21 5 -13 5 5 8 16 6 23 -3 8 -7 3 -11 -10z"/>
<path d="M4300 5700 c-7 -5 -6 -11 5 -20 13 -11 14 -10 9 5 -5 12 -4 16 4 11
6 -3 13 -3 16 2 6 10 -19 12 -34 2z"/>
<path d="M4385 5700 c-3 -6 1 -7 9 -4 18 7 21 14 7 14 -6 0 -13 -4 -16 -10z"/>
<path d="M4045 5690 c3 -5 8 -10 11 -10 2 0 4 5 4 10 0 6 -5 10 -11 10 -5 0
-7 -4 -4 -10z"/>
<path d="M4590 5691 c0 -6 4 -13 10 -16 6 -3 7 1 4 9 -7 18 -14 21 -14 7z"/>
<path d="M2057 5675 c-4 -8 -3 -16 1 -19 4 -3 9 4 9 15 2 23 -3 25 -10 4z"/>
<path d="M3616 5651 c-16 -18 -16 -20 6 -35 21 -15 24 -15 41 2 21 21 14 52
-13 52 -9 0 -25 -9 -34 -19z"/>
<path d="M4285 5660 c-3 -5 -2 -18 4 -27 7 -14 9 -12 8 10 -2 30 -3 31 -12 17z"/>
<path d="M4565 5652 c13 -16 19 -40 20 -80 4 -105 4 -109 15 -92 8 12 10 10 8
-9 -2 -13 2 -25 7 -27 6 -3 9 20 8 58 -1 35 -2 84 -2 109 -1 38 -5 48 -21 52
-11 3 -18 1 -14 -4 8 -13 -10 -11 -26 4 -8 6 -6 2 5 -11z m32 -34 c-3 -8 -6
-5 -6 6 -1 11 2 17 5 13 3 -3 4 -12 1 -19z"/>
<path d="M4694 5651 c2 -25 36 -44 36 -20 0 5 -6 7 -12 3 -10 -6 -10 -4 0 8
10 13 9 16 -6 20 -13 4 -19 0 -18 -11z"/>
<path d="M4476 5652 c-2 -4 -1 -14 4 -22 7 -11 9 -9 7 8 -1 24 -3 26 -11 14z"/>
<path d="M4671 5638 c0 -15 4 -30 9 -33 17 -10 11 -25 -7 -18 -11 4 -14 3 -9
-5 11 -19 51 -14 71 8 17 19 17 20 1 20 -10 0 -14 -5 -10 -11 3 -6 -5 -4 -19
6 -14 9 -28 26 -30 38 -4 18 -5 18 -6 -5z"/>
<path d="M4167 5639 c7 -7 15 -10 18 -7 3 3 -2 9 -12 12 -14 6 -15 5 -6 -5z"/>
<path d="M2016 5616 c-10 -15 -12 -27 -6 -31 6 -3 11 -4 11 -1 1 3 3 11 4 16
1 6 3 15 4 21 0 6 8 8 17 5 8 -3 12 -2 9 4 -10 16 -22 12 -39 -14z"/>
<path d="M3824 5604 c3 -9 6 -20 6 -25 0 -6 5 -7 10 -4 6 3 10 -4 10 -16 0
-17 3 -20 11 -12 9 9 6 19 -10 42 -24 33 -37 41 -27 15z"/>
<path d="M6370 5605 c7 -9 15 -13 17 -11 7 7 -7 26 -19 26 -6 0 -6 -6 2 -15z"/>
<path d="M4495 5597 c-11 -6 -31 -18 -44 -25 -19 -11 -21 -16 -10 -23 10 -6 6
-9 -13 -9 -20 0 -28 6 -31 23 -4 21 -4 21 -6 -3 -1 -18 -4 -21 -10 -11 -5 7
-11 9 -14 4 -11 -18 22 -51 59 -57 58 -11 90 1 109 40 17 36 13 74 -8 73 -7 0
-21 -5 -32 -12z m32 -19 c-3 -8 -6 -5 -6 6 -1 11 2 17 5 13 3 -3 4 -12 1 -19z
m-26 -13 c8 20 8 20 8 0 1 -11 -8 -26 -20 -33 -17 -11 -20 -11 -13 0 5 7 8 22
7 33 l-2 20 6 -20 6 -20 8 20z m-52 -39 c-10 -10 -59 -14 -59 -5 0 5 14 9 32
9 17 0 29 -2 27 -4z m34 -23 c-7 -2 -19 -2 -25 0 -7 3 -2 5 12 5 14 0 19 -2
13 -5z"/>
<path d="M3200 5590 c0 -5 -18 -10 -40 -10 -29 0 -40 -4 -40 -15 0 -8 -9 -15
-20 -15 -12 0 -32 -11 -46 -25 -14 -14 -34 -25 -46 -25 -11 0 -37 -13 -57 -28
-52 -41 -129 -74 -183 -80 -27 -2 -48 -8 -48 -13 0 -11 -59 -69 -71 -69 -5 0
-9 -11 -9 -25 0 -25 -1 -25 -80 -25 -64 0 -80 -3 -80 -15 0 -28 -77 -93 -120
-100 -30 -5 -40 -11 -40 -26 0 -16 -7 -19 -40 -19 l-40 0 0 -95 c0 -76 3 -95
14 -95 10 0 16 -13 18 -37 2 -31 7 -39 26 -41 12 -2 22 -9 22 -16 0 -9 25 -16
80 -20 99 -9 153 11 158 57 3 24 7 27 43 27 28 0 39 4 39 15 0 9 9 15 24 15
37 0 56 10 56 31 0 15 7 19 40 19 29 0 40 4 40 15 0 8 7 15 15 15 25 0 65 23
65 37 0 7 11 13 25 13 14 0 33 8 43 18 24 23 80 42 128 42 51 0 99 31 121 77
15 31 31 44 84 70 49 23 68 38 73 57 3 13 19 38 36 54 28 29 30 35 30 106 0
97 -18 121 -92 117 -28 -1 -48 2 -48 9 0 5 -18 10 -40 10 -22 0 -40 -4 -40
-10z"/>
<path d="M3570 5590 c0 -5 5 -12 11 -15 6 -4 8 -13 5 -21 -7 -17 5 -18 27 -1
15 11 14 14 -13 29 -17 9 -30 13 -30 8z"/>
<path d="M3900 5591 c0 -6 4 -13 10 -16 6 -3 7 1 4 9 -7 18 -14 21 -14 7z"/>
<path d="M2017 5565 c-21 -20 -26 -32 -21 -51 5 -19 3 -23 -10 -18 -19 7 -22
-12 -3 -20 6 -3 -6 -5 -28 -3 -37 2 -40 0 -37 -22 3 -16 0 -21 -9 -15 -9 5
-10 2 -6 -9 22 -54 22 -53 -1 -33 -24 21 -28 16 -10 -14 10 -16 9 -23 -7 -40
-10 -12 -19 -33 -20 -48 0 -19 -5 -27 -17 -26 -9 1 -19 -7 -21 -18 -4 -15 -2
-17 7 -8 10 8 12 5 9 -14 -4 -20 -10 -24 -34 -21 -25 4 -29 1 -29 -20 0 -13
-6 -26 -12 -28 -7 -3 -1 -6 14 -6 20 -1 26 3 22 14 -4 8 -2 15 4 15 6 0 12 -6
15 -12 2 -8 25 8 56 40 42 42 58 52 85 52 48 0 86 41 86 91 0 35 2 39 26 39
l27 0 -7 73 c-9 98 -14 111 -32 96 -8 -6 -17 -9 -21 -5 -3 3 -2 6 4 6 6 0 13
7 17 15 9 23 -16 18 -47 -10z"/>
<path d="M3930 5580 c0 -5 4 -10 9 -10 6 0 13 5 16 10 3 6 -1 10 -9 10 -9 0
-16 -4 -16 -10z"/>
<path d="M5883 5583 c-100 -3 -123 -6 -123 -18 0 -8 -8 -15 -18 -15 -9 0 -48
-18 -86 -40 -37 -22 -72 -40 -77 -40 -5 0 -9 -4 -9 -10 0 -16 -126 -70 -164
-70 -19 0 -46 -4 -59 -9 -27 -10 -67 -71 -67 -102 0 -17 -7 -19 -80 -19 l-80
0 1 -42 c0 -24 3 -37 6 -30 2 6 20 12 39 12 19 0 34 4 34 9 0 5 18 11 40 13
l40 4 0 -78 0 -78 -50 0 c-54 0 -54 0 -41 -48 5 -17 6 -32 2 -32 -19 0 -28
-49 -21 -106 7 -53 8 -55 9 -16 1 53 21 56 21 2 0 -38 12 -52 25 -29 4 5 18
14 31 19 14 6 24 18 24 30 0 16 7 20 35 20 22 0 38 6 41 15 4 8 12 15 20 15
23 0 64 23 64 35 0 7 16 16 36 20 24 4 38 13 41 26 3 12 14 19 29 19 13 0 32
8 42 18 23 23 80 42 125 42 20 0 37 4 37 10 0 5 6 7 14 4 17 -7 58 31 77 71 8
16 27 36 43 44 16 7 31 22 33 32 4 12 16 19 42 21 29 2 37 8 39 25 2 13 17 36
33 52 27 27 29 35 29 106 0 69 -2 78 -26 100 -15 14 -27 24 -28 23 -1 -1 -56
-4 -123 -5z"/>
<path d="M4240 5571 c0 -6 4 -13 10 -16 6 -3 7 1 4 9 -7 18 -14 21 -14 7z"/>
<path d="M1961 5530 c-12 -22 -20 -40 -17 -40 7 0 49 71 44 75 -2 3 -15 -13
-27 -35z"/>
<path d="M3636 5554 c-3 -8 1 -14 11 -14 9 0 22 -8 29 -17 15 -22 32 -8 18 14
-15 24 -51 35 -58 17z m52 -29 c-3 -3 -9 2 -12 12 -6 14 -5 15 5 6 7 -7 10
-15 7 -18z"/>
<path d="M4015 5549 c-4 -6 -5 -12 -2 -15 2 -3 7 2 10 11 7 17 1 20 -8 4z"/>
<path d="M4752 5545 c-7 -9 -30 -15 -52 -15 -38 0 -52 -12 -30 -25 6 -3 10 -1
10 4 0 6 17 10 38 9 36 -1 36 -1 5 -5 -18 -2 -33 -8 -33 -13 0 -5 -8 -11 -17
-13 -14 -4 -13 -5 4 -6 42 -2 10 -58 -34 -58 -33 0 -51 17 -59 56 -6 27 -8 28
-21 15 -30 -30 -73 -44 -128 -43 -58 2 -85 21 -106 76 -7 20 -12 23 -23 14 -7
-6 -11 -22 -9 -35 3 -13 0 -27 -7 -31 -8 -5 -8 -10 1 -21 9 -11 7 -14 -12 -14
-13 0 -19 4 -14 8 6 4 11 18 12 32 1 14 -1 17 -3 8 -3 -9 -14 -20 -25 -23 -11
-4 -16 -11 -13 -17 4 -6 -1 -8 -15 -3 -16 5 -20 3 -15 -9 3 -8 11 -17 17 -19
7 -2 2 -2 -10 -1 -29 5 -40 -13 -11 -19 21 -4 21 -4 -3 -6 -14 0 -29 3 -35 9
-6 6 -24 4 -49 -5 -22 -8 -51 -14 -66 -15 -31 0 -49 -17 -49 -47 0 -14 -6 -23
-15 -23 -8 0 -15 -4 -15 -10 0 -17 -67 -41 -109 -39 -34 3 -44 -1 -58 -22 -27
-39 -73 -79 -99 -85 -13 -3 -24 -12 -24 -20 0 -10 -12 -14 -39 -14 -28 0 -45
-7 -65 -26 -24 -24 -26 -34 -26 -103 0 -93 7 -119 31 -126 10 -4 19 -12 19
-19 0 -7 8 -20 18 -29 26 -24 222 -25 222 -2 0 8 8 15 18 15 23 0 132 58 132
71 0 5 6 9 13 9 18 0 99 41 130 66 15 12 27 31 27 43 0 18 6 21 40 21 29 0 40
4 40 15 0 10 10 15 33 15 17 1 43 7 57 15 14 8 44 14 68 15 50 0 82 14 82 35
0 8 7 15 15 15 8 0 15 5 15 11 0 20 114 119 122 106 5 -8 15 -4 32 13 20 18
26 33 26 67 0 41 5 48 36 44 6 -1 14 15 17 35 3 20 14 42 24 50 16 12 16 13
-7 8 -22 -5 -23 -4 -10 8 9 7 17 25 18 41 2 31 2 31 -16 12z m-432 -21 c0 -8
-5 -12 -10 -9 -6 4 -8 11 -5 16 9 14 15 11 15 -7z m403 -37 c3 -8 2 -20 -3
-26 -5 -9 -7 -4 -7 13 0 29 2 32 10 13z m-377 -9 c5 -8 2 -9 -9 -5 -10 3 -17
3 -17 -2 0 -5 10 -11 22 -14 12 -4 19 -9 16 -13 -13 -12 -48 8 -48 27 0 21 24
26 36 7z m69 -48 c-27 -12 -43 -12 -25 0 8 5 22 9 30 9 10 0 8 -3 -5 -9z m180
-11 c11 -17 -1 -21 -15 -4 -8 9 -8 15 -2 15 6 0 14 -5 17 -11z m109 -4 c-10
-8 -23 -15 -28 -15 -6 0 -1 7 10 15 10 8 23 15 28 15 6 0 1 -7 -10 -15z"/>
<path d="M4117 5543 c-3 -5 11 -9 31 -11 40 -3 40 2 0 12 -15 3 -29 3 -31 -1z"/>
<path d="M4209 5534 c15 -11 26 -13 33 -6 6 6 6 12 -3 17 -8 5 -10 4 -5 -3 4
-7 3 -12 -3 -12 -5 0 -13 5 -16 10 -3 6 -11 10 -18 10 -6 0 -1 -7 12 -16z"/>
<path d="M3946 5527 c3 -10 9 -15 12 -12 3 3 0 11 -7 18 -10 9 -11 8 -5 -6z"/>
<path d="M3630 5520 c8 -5 20 -10 25 -10 6 0 3 5 -5 10 -8 5 -19 10 -25 10 -5
0 -3 -5 5 -10z"/>
<path d="M4030 5523 c0 -6 5 -15 11 -18 6 -4 8 -13 6 -19 -3 -7 1 -13 8 -13
10 0 11 5 5 16 -20 35 -30 46 -30 34z"/>
<path d="M3524 5500 c0 -13 4 -16 10 -10 7 7 7 13 0 20 -6 6 -10 3 -10 -10z"/>
<path d="M3860 5516 c0 -2 7 -9 15 -16 13 -11 14 -10 9 4 -5 14 -24 23 -24 12z"/>
<path d="M4110 5506 c7 -7 13 -7 20 0 6 6 3 10 -10 10 -13 0 -16 -4 -10 -10z"/>
<path d="M3547 5486 c-4 -10 -1 -13 8 -9 8 3 12 9 9 14 -7 12 -11 11 -17 -5z"/>
<path d="M3658 5493 c7 -3 16 -2 19 1 4 3 -2 6 -13 5 -11 0 -14 -3 -6 -6z"/>
<path d="M4158 5493 c6 -2 18 -2 25 0 6 3 1 5 -13 5 -14 0 -19 -2 -12 -5z"/>
<path d="M6426 5483 c-6 -14 -5 -15 5 -6 7 7 10 15 7 18 -3 3 -9 -2 -12 -12z"/>
<path d="M4656 5454 c-17 -12 -17 -14 -4 -14 9 0 20 5 23 11 11 17 2 18 -19 3z"/>
<path d="M3530 5453 c0 -4 5 -15 10 -23 8 -13 10 -13 10 2 0 9 -4 20 -10 23
-5 3 -10 3 -10 -2z"/>
<path d="M4090 5456 c0 -2 7 -7 16 -10 8 -3 12 -2 9 4 -6 10 -25 14 -25 6z"/>
<path d="M3648 5443 c7 -3 16 -2 19 1 4 3 -2 6 -13 5 -11 0 -14 -3 -6 -6z"/>
<path d="M3730 5440 c0 -5 5 -10 10 -10 6 0 10 5 10 10 0 6 -4 10 -10 10 -5 0
-10 -4 -10 -10z"/>
<path d="M3780 5441 c0 -6 4 -13 10 -16 6 -3 7 1 4 9 -7 18 -14 21 -14 7z"/>
<path d="M3968 5443 c6 -2 18 -2 25 0 6 3 1 5 -13 5 -14 0 -19 -2 -12 -5z"/>
<path d="M3698 5423 c7 -3 16 -2 19 1 4 3 -2 6 -13 5 -11 0 -14 -3 -6 -6z"/>
<path d="M3767 5409 c7 -7 15 -10 18 -7 3 3 -2 9 -12 12 -14 6 -15 5 -6 -5z"/>
<path d="M4088 5413 c6 -2 18 -2 25 0 6 3 1 5 -13 5 -14 0 -19 -2 -12 -5z"/>
<path d="M6496 5403 c-6 -14 -5 -15 5 -6 7 7 10 15 7 18 -3 3 -9 -2 -12 -12z"/>
<path d="M3810 5406 c0 -2 7 -7 16 -10 8 -3 12 -2 9 4 -6 10 -25 14 -25 6z"/>
<path d="M1865 5367 c-4 -10 -5 -21 -1 -24 10 -10 18 4 13 24 -4 17 -4 17 -12
0z"/>
<path d="M6490 5345 c0 -5 5 -17 10 -25 5 -8 10 -10 10 -5 0 6 -5 17 -10 25
-5 8 -10 11 -10 5z"/>
<path d="M1810 5270 c-6 -11 -8 -20 -6 -20 3 0 10 9 16 20 6 11 8 20 6 20 -3
0 -10 -9 -16 -20z"/>
<path d="M6530 5283 c-24 -3 -47 -9 -51 -14 -3 -5 -57 -12 -120 -16 -64 -3
-117 -11 -121 -17 -4 -6 -8 -28 -8 -48 0 -21 -4 -38 -10 -38 -5 0 -10 -18 -10
-40 0 -36 -2 -40 -25 -40 -25 0 -25 -1 -25 -89 0 -87 1 -90 31 -120 17 -17 35
-31 40 -31 5 0 9 -7 9 -15 0 -11 11 -15 39 -15 22 0 42 -6 44 -12 8 -19 57 38
57 67 0 33 -10 56 -22 49 -6 -4 -5 3 1 15 7 12 8 27 4 34 -4 6 -15 37 -24 67
-9 30 -21 54 -26 53 -5 -1 -10 11 -10 27 0 17 -8 38 -17 49 -10 11 -16 28 -13
38 4 17 5 17 6 0 1 -14 5 -16 20 -8 24 13 44 -3 61 -49 7 -19 20 -44 29 -54
11 -13 11 -17 3 -12 -11 7 -12 4 -3 -13 7 -11 18 -21 25 -21 15 0 36 -42 36
-71 0 -11 -4 -18 -9 -15 -5 3 -7 16 -4 29 4 18 3 19 -6 7 -9 -12 -11 -13 -11
-1 0 8 -2 12 -4 10 -3 -3 0 -24 6 -48 10 -40 12 -42 25 -26 7 11 13 13 13 6 0
-7 5 -9 12 -5 7 4 8 3 4 -4 -4 -6 -4 -22 -1 -34 5 -20 11 -23 46 -20 33 4 39
7 39 28 0 21 5 24 34 24 25 0 38 6 50 25 18 27 21 55 6 55 -5 0 -7 7 -3 15 4
12 9 9 20 -12 21 -41 31 -48 30 -20 -1 14 -5 23 -9 20 -5 -2 -8 7 -8 21 0 14
-5 26 -11 26 -7 0 -9 11 -5 28 3 15 3 21 -1 13 -5 -11 -7 -11 -14 0 -6 9 -8 4
-5 -16 2 -16 1 -22 -1 -12 -2 9 -9 17 -15 17 -11 0 -7 51 7 85 6 16 5 18 -5 8
-10 -9 -18 -9 -34 -1 -12 6 -22 11 -23 10 -2 -1 -6 -2 -10 -2 -5 0 0 5 10 11
19 11 23 44 7 54 -5 3 -10 -2 -10 -11 0 -10 -3 -15 -6 -11 -4 3 -3 18 0 32 6
23 9 25 23 13 15 -12 15 -11 4 10 -6 12 -13 21 -14 20 -1 -1 -22 -3 -47 -5z
m-268 -65 c-6 -7 -12 -26 -15 -43 -4 -28 -4 -28 -6 6 -1 36 5 49 22 49 6 0 5
-5 -1 -12z m65 -10 c-3 -8 -6 -5 -6 6 -1 11 2 17 5 13 3 -3 4 -12 1 -19z m40
16 c-3 -3 -12 -4 -19 -1 -8 3 -5 6 6 6 11 1 17 -2 13 -5z m33 -10 c0 -8 -5
-12 -10 -9 -6 4 -8 11 -5 16 9 14 15 11 15 -7z m0 -36 c0 -12 -12 -9 -32 6
-26 19 -22 27 7 14 14 -6 25 -15 25 -20z m-114 -53 c4 -14 4 -29 0 -32 -3 -4
-6 3 -6 13 0 11 -5 25 -12 32 -9 9 -9 12 0 12 6 0 14 -11 18 -25z m105 -2
c-12 -20 -14 -14 -5 12 4 9 9 14 11 11 3 -2 0 -13 -6 -23z m-128 -56 c-3 -6
-1 -7 4 -4 6 4 13 0 17 -8 4 -10 -1 -14 -17 -13 -20 2 -22 6 -18 47 4 43 4 44
12 17 5 -16 5 -34 2 -39z m66 -49 c-1 -7 3 -26 10 -42 6 -16 10 -34 7 -40 -2
-6 -5 -4 -5 5 -1 10 -10 16 -23 16 -49 1 -58 4 -58 18 0 8 9 15 20 15 13 0 20
7 20 20 0 11 7 20 15 20 9 0 15 -6 14 -12z m148 -50 c-3 -8 -6 -5 -6 6 -1 11
2 17 5 13 3 -3 4 -12 1 -19z m-140 -110 c-3 -7 -5 -2 -5 12 0 14 2 19 5 13 2
-7 2 -19 0 -25z m30 0 c-3 -8 -6 -5 -6 6 -1 11 2 17 5 13 3 -3 4 -12 1 -19z"/>
<path d="M6600 5196 c0 -8 4 -17 9 -20 5 -4 7 3 4 14 -6 23 -13 26 -13 6z"/>
<path d="M1960 5155 c-11 -13 -10 -14 4 -9 9 3 16 10 16 15 0 13 -6 11 -20 -6z"/>
<path d="M5040 5152 c0 -4 -18 -7 -40 -7 -22 0 -55 -7 -72 -17 -40 -21 -18
-23 44 -4 24 7 60 11 79 8 31 -5 33 -3 20 12 -14 17 -31 22 -31 8z"/>
<path d="M5101 5108 c17 -34 19 -34 19 -5 0 18 -5 27 -15 27 -13 0 -14 -4 -4
-22z"/>
<path d="M2030 5113 c0 -6 8 -17 18 -24 16 -13 16 -13 2 6 -8 11 -16 22 -17
24 -2 2 -3 0 -3 -6z"/>
<path d="M4950 5104 c-22 -8 -28 -13 -15 -13 11 0 34 6 50 14 38 17 11 17 -35
-1z"/>
<path d="M1931 5084 c0 -11 3 -14 6 -6 3 7 2 16 -1 19 -3 4 -6 -2 -5 -13z"/>
<path d="M1951 5074 c0 -11 3 -14 6 -6 3 7 2 16 -1 19 -3 4 -6 -2 -5 -13z"/>
<path d="M4794 5053 c2 -9 10 -17 19 -19 23 -3 21 8 -2 23 -16 10 -19 9 -17
-4z"/>
<path d="M4863 5060 c-13 -5 -23 -11 -23 -14 0 -7 40 6 46 15 6 10 6 10 -23
-1z"/>
<path d="M5111 5054 c0 -11 3 -14 6 -6 3 7 2 16 -1 19 -3 4 -6 -2 -5 -13z"/>
<path d="M5146 5055 c4 -8 8 -15 10 -15 2 0 4 7 4 15 0 8 -4 15 -10 15 -5 0
-7 -7 -4 -15z"/>
<path d="M4730 5040 c-8 -5 -10 -10 -5 -10 6 0 17 5 25 10 8 5 11 10 5 10 -5
0 -17 -5 -25 -10z"/>
<path d="M1924 5010 c0 -13 4 -16 10 -10 7 7 7 13 0 20 -6 6 -10 3 -10 -10z"/>
<path d="M5113 4940 c0 -47 2 -66 4 -42 2 23 2 61 0 85 -2 23 -4 4 -4 -43z"/>
<path d="M1696 4987 c3 -10 9 -15 12 -12 3 3 0 11 -7 18 -10 9 -11 8 -5 -6z"/>
<path d="M4720 4990 c-9 -6 -10 -10 -3 -10 6 0 15 5 18 10 8 12 4 12 -15 0z"/>
<path d="M4620 4979 c-8 -5 -10 -9 -5 -9 6 0 3 -5 -5 -10 -12 -7 -10 -9 7 -7
13 0 25 7 27 14 7 17 -7 24 -24 12z"/>
<path d="M4671 4981 c-7 -5 -9 -11 -5 -14 5 -3 15 1 22 9 14 16 5 18 -17 5z"/>
<path d="M4568 4916 c3 -11 7 -15 10 -8 2 7 7 10 11 8 4 -3 8 1 8 9 0 7 -8 13
-17 12 -12 -1 -15 -7 -12 -21z"/>
<path d="M1979 4928 c-4 -19 -9 -51 -6 -47 1 2 8 11 15 21 9 11 10 18 2 23 -5
3 -10 5 -11 3z"/>
<path d="M1896 4898 c5 -8 2 -9 -10 -5 -9 4 -14 3 -11 -2 3 -5 1 -12 -5 -16
-6 -4 -7 -11 -4 -17 5 -7 2 -9 -7 -6 -11 4 -15 -7 -16 -48 -1 -29 2 -56 7 -59
12 -7 32 32 27 53 -3 14 -6 12 -16 -8 -10 -23 -11 -22 -5 10 7 41 24 64 25 35
0 -12 3 -15 6 -7 3 7 0 19 -7 27 -9 11 -7 16 9 25 22 11 28 30 10 30 -5 0 -7
-5 -3 -12z"/>
<path d="M4483 4895 c-3 -9 -3 -19 1 -22 3 -4 6 2 6 12 0 15 2 16 18 4 15 -13
16 -12 3 4 -17 21 -20 21 -28 2z"/>
<path d="M4530 4890 c0 -5 5 -10 11 -10 5 0 7 5 4 10 -3 6 -8 10 -11 10 -2 0
-4 -4 -4 -10z"/>
<path d="M6461 4864 c0 -11 3 -14 6 -6 3 7 2 16 -1 19 -3 4 -6 -2 -5 -13z"/>
<path d="M1980 4855 c0 -5 5 -17 10 -25 5 -8 10 -10 10 -5 0 6 -5 17 -10 25
-5 8 -10 11 -10 5z"/>
<path d="M4447 4839 c-8 -11 -22 -22 -31 -23 -9 -1 -17 -6 -17 -10 -1 -19 10
-14 45 19 21 19 33 35 27 35 -5 0 -16 -9 -24 -21z"/>
<path d="M1661 4834 c0 -11 3 -14 6 -6 3 7 2 16 -1 19 -3 4 -6 -2 -5 -13z"/>
<path d="M6463 4824 c-3 -8 -1 -20 6 -27 8 -8 11 -4 9 16 -3 31 -6 34 -15 11z"/>
<path d="M6391 4814 c0 -11 3 -14 6 -6 3 7 2 16 -1 19 -3 4 -6 -2 -5 -13z"/>
<path d="M1964 4806 c-3 -8 -1 -23 5 -33 9 -15 10 -13 11 15 0 34 -7 42 -16
18z"/>
<path d="M1941 4794 c0 -11 3 -14 6 -6 3 7 2 16 -1 19 -3 4 -6 -2 -5 -13z"/>
<path d="M1990 4769 c0 -29 -13 -38 -25 -19 -4 6 -15 1 -26 -14 -24 -31 -24
-39 2 -31 19 6 20 4 14 -27 -3 -18 -8 -71 -12 -118 -3 -47 -9 -89 -14 -94 -17
-19 -9 -36 16 -36 19 0 28 8 36 27 7 20 12 24 18 14 7 -11 13 -9 30 8 15 15
21 33 21 66 0 41 2 45 25 45 28 0 30 17 16 118 -9 61 -16 71 -65 82 -35 8 -36
7 -36 -21z"/>
<path d="M4362 4788 c2 -7 -4 -12 -14 -10 -9 1 -19 -2 -23 -8 -4 -6 1 -7 11
-3 12 4 15 3 10 -6 -6 -9 -3 -9 13 1 23 14 26 24 11 33 -6 4 -9 1 -8 -7z"/>
<path d="M3124 4765 c-4 -8 -12 -15 -20 -15 -8 0 -14 -4 -14 -10 0 -8 -19 -18
-93 -49 -16 -6 -31 -20 -34 -31 -4 -13 -16 -20 -42 -22 -29 -2 -37 -8 -39 -25
-3 -21 -8 -23 -75 -23 l-72 -1 -47 -48 c-27 -27 -48 -53 -48 -59 0 -6 -34 -13
-76 -17 -56 -6 -77 -12 -82 -24 -3 -9 -14 -25 -24 -35 -10 -11 -18 -23 -18
-27 0 -4 -9 -11 -20 -14 -11 -3 -20 -14 -20 -24 0 -15 -12 -19 -67 -25 -37 -4
-73 -12 -80 -18 -9 -7 -13 -42 -13 -117 0 -118 12 -151 56 -151 14 0 24 -6 24
-14 0 -10 23 -16 89 -21 86 -7 91 -6 136 21 26 15 59 38 73 51 14 13 31 23 38
23 8 0 14 4 14 9 0 5 10 11 23 13 14 2 23 11 25 26 3 18 10 22 43 22 28 0 39
4 39 15 0 8 9 15 21 15 28 0 59 18 59 34 0 8 16 16 40 20 22 3 40 10 40 15 0
11 31 20 109 31 45 6 70 15 85 30 15 16 17 24 9 27 -9 3 -13 30 -13 84 0 77 1
79 24 79 13 0 27 6 30 13 3 6 3 -4 0 -23 -6 -33 -5 -34 9 -15 8 11 13 23 11
27 -3 5 2 8 10 8 10 0 16 9 16 23 0 12 3 33 6 47 4 20 3 22 -5 10 -9 -12 -11
-10 -11 10 1 27 18 54 37 57 7 2 10 -6 8 -16 -3 -17 0 -18 33 -8 34 11 34 12
11 18 -21 6 -10 11 18 8 4 0 11 8 15 18 6 12 7 8 4 -13 -4 -27 -2 -32 19 -36
14 -3 26 0 29 8 3 8 2 14 -2 14 -4 0 -6 20 -4 45 4 43 3 45 -22 45 -16 0 -26
6 -26 15 0 12 -19 15 -115 15 -94 0 -117 -3 -121 -15z m106 -125 c-7 -12 -12
-38 -12 -56 0 -19 -4 -31 -10 -28 -5 3 -6 20 -3 37 7 36 26 79 32 73 3 -2 -1
-14 -7 -26z"/>
<path d="M5764 4766 c-3 -9 -12 -16 -19 -16 -8 0 -20 -6 -27 -14 -8 -7 -35
-23 -62 -34 -28 -13 -50 -30 -53 -41 -4 -14 -15 -21 -42 -23 -29 -2 -37 -8
-39 -25 -3 -21 -8 -23 -71 -23 -95 0 -127 -13 -151 -63 -11 -22 -20 -47 -20
-54 0 -17 -76 -18 -83 0 -4 8 -14 3 -31 -15 -14 -16 -33 -28 -43 -28 -15 0
-19 -9 -21 -37 -2 -20 2 -39 8 -43 8 -5 7 -12 -4 -23 -9 -8 -16 -25 -16 -36 0
-41 -24 -100 -43 -105 -15 -4 -18 -11 -14 -33 l6 -28 -13 30 c-8 16 -12 35 -9
42 3 7 1 13 -5 13 -18 0 -23 -33 -7 -50 19 -21 20 -47 1 -47 -8 0 -11 7 -9 18
3 9 0 20 -6 23 -10 7 -13 3 -15 -26 -1 -7 -7 -19 -14 -27 -7 -7 -11 -20 -8
-27 3 -7 1 -16 -5 -20 -18 -11 -42 -81 -33 -95 6 -11 34 0 34 13 0 6 -6 5 -15
-2 -9 -8 -15 -9 -15 -2 0 6 5 14 10 17 6 4 8 10 5 14 -2 5 2 17 10 27 13 18
13 18 11 -6 l-3 -25 111 3 c113 3 136 11 136 43 0 13 9 19 38 21 30 2 38 7 40
26 3 18 10 22 37 22 19 0 38 6 42 14 4 8 22 16 38 18 20 2 33 11 40 26 6 13
19 22 31 22 22 0 104 54 104 69 0 5 17 11 38 15 20 3 55 8 77 11 22 3 50 8 63
11 28 6 172 146 172 168 0 12 10 16 40 16 36 0 40 3 40 24 0 14 13 38 30 54
28 29 30 35 30 111 0 63 -3 81 -14 81 -8 0 -16 6 -18 13 -3 8 -41 13 -131 15
-109 3 -128 1 -133 -12z m-647 -398 c-3 -7 -5 -2 -5 12 0 14 2 19 5 13 2 -7 2
-19 0 -25z m3 -108 c0 -5 -2 -10 -4 -10 -3 0 -8 5 -11 10 -3 6 -1 10 4 10 6 0
11 -4 11 -10z"/>
<path d="M1652 4735 c0 -16 2 -22 5 -12 2 9 2 23 0 30 -3 6 -5 -1 -5 -18z"/>
<path d="M1760 4725 c0 -22 -4 -25 -40 -25 -25 0 -40 -5 -40 -12 0 -9 -4 -8
-10 2 -8 13 -10 12 -10 -3 0 -13 -5 -17 -19 -12 -26 8 -37 -11 -50 -86 -12
-74 -13 -96 -1 -59 5 17 7 6 6 -37 0 -35 -4 -63 -8 -63 -5 0 -8 -19 -8 -42 0
-32 3 -39 10 -28 8 11 9 7 4 -15 -4 -16 -8 -31 -9 -33 -8 -10 -16 85 -10 121
4 23 4 39 0 35 -10 -10 -23 -118 -13 -118 4 0 8 -17 9 -37 1 -21 5 -49 9 -63
8 -24 8 -24 9 -2 1 18 7 22 35 22 18 0 46 4 62 9 16 6 48 12 70 15 37 4 43 2
49 -17 4 -15 8 -18 12 -9 3 8 0 19 -6 25 -6 6 -11 20 -11 31 0 17 2 18 10 6
11 -18 14 10 19 195 1 49 4 66 11 55 7 -11 10 -7 11 20 1 19 3 46 4 59 1 14
-2 39 -7 58 -8 30 -12 33 -48 33 -36 0 -40 -3 -40 -25z m28 -356 c1 13 5 22 8
18 4 -3 3 -18 0 -34 -13 -48 -26 -5 -24 77 l2 75 6 -80 c3 -44 7 -69 8 -56z
m19 99 c-3 -8 -6 -5 -6 6 -1 11 2 17 5 13 3 -3 4 -12 1 -19z m13 -54 c0 -8 -5
-12 -10 -9 -6 4 -8 11 -5 16 9 14 15 11 15 -7z"/>
<path d="M4280 4725 c-14 -17 -8 -31 9 -20 6 3 8 11 5 17 -5 8 -1 9 10 5 10
-4 15 -3 11 3 -9 14 -21 12 -35 -5z"/>
<path d="M1861 4714 c0 -11 3 -14 6 -6 3 7 2 16 -1 19 -3 4 -6 -2 -5 -13z"/>
<path d="M4890 4689 c0 -5 5 -7 10 -4 6 3 10 8 10 11 0 2 -4 4 -10 4 -5 0 -10
-5 -10 -11z"/>
<path d="M1915 4680 c-3 -5 1 -10 10 -10 9 0 13 5 10 10 -3 6 -8 10 -10 10 -2
0 -7 -4 -10 -10z"/>
<path d="M4165 4651 c2 -9 4 -18 5 -21 1 -3 2 -8 1 -12 -2 -12 17 -10 24 2 3
6 2 10 -4 10 -5 0 -8 8 -6 18 2 11 -3 19 -10 19 -7 0 -11 -7 -10 -16z"/>
<path d="M4206 4661 c-4 -5 -2 -12 3 -15 5 -4 12 -2 15 3 4 5 2 12 -3 15 -5 4
-12 2 -15 -3z"/>
<path d="M4867 4653 c3 -7 9 -10 14 -7 14 8 11 21 -5 21 -8 0 -12 -6 -9 -14z"/>
<path d="M1911 4644 c0 -11 3 -14 6 -6 3 7 2 16 -1 19 -3 4 -6 -2 -5 -13z"/>
<path d="M3320 4635 c0 -2 18 -13 40 -24 30 -14 40 -16 40 -6 0 15 -27 28 -41
19 -5 -3 -9 0 -9 5 0 6 -7 11 -15 11 -8 0 -15 -2 -15 -5z"/>
<path d="M1912 4585 c0 -16 2 -22 5 -12 2 9 2 23 0 30 -3 6 -5 -1 -5 -18z"/>
<path d="M6420 4601 c0 -5 5 -13 10 -16 6 -3 10 -2 10 4 0 5 -4 13 -10 16 -5
3 -10 2 -10 -4z"/>
<path d="M6800 4600 c0 -6 -32 -10 -75 -10 -92 0 -124 -15 -150 -68 -12 -23
-25 -38 -32 -35 -8 3 -13 -3 -13 -17 0 -13 4 -19 11 -14 9 5 10 -6 5 -42 -4
-27 -9 -71 -11 -99 -4 -45 -3 -45 5 9 5 32 11 60 13 62 2 2 1 -50 -1 -116 -5
-131 2 -190 22 -190 29 0 146 74 146 92 0 12 7 18 24 18 36 0 56 10 57 29 0 9
3 11 6 4 3 -9 10 -7 24 6 19 17 19 23 7 150 -7 72 -15 131 -19 131 -4 0 -5
-19 -3 -42 4 -43 4 -43 -6 -8 -5 19 -8 61 -7 93 2 31 1 57 0 57 -2 0 -3 -4 -3
-10z m-210 -210 c0 -22 -4 -40 -10 -40 -5 0 -10 4 -10 9 0 5 -3 23 -6 40 -5
24 -3 31 10 31 12 0 16 -10 16 -40z m237 -32 c-3 -8 -6 -5 -6 6 -1 11 2 17 5
13 3 -3 4 -12 1 -19z m-20 -75 c-3 -10 -5 -2 -5 17 0 19 2 27 5 18 2 -10 2
-26 0 -35z m30 -5 c-3 -7 -5 -2 -5 12 0 14 2 19 5 13 2 -7 2 -19 0 -25z m-270
-70 c-2 -13 -4 -3 -4 22 0 25 2 35 4 23 2 -13 2 -33 0 -45z"/>
<path d="M3417 4579 c7 -7 15 -10 18 -7 3 3 -2 9 -12 12 -14 6 -15 5 -6 -5z"/>
<path d="M4090 4569 c-7 -11 -9 -23 -6 -27 3 -3 6 0 6 6 0 7 5 12 12 12 9 0 9
-3 0 -12 -7 -7 -32 -11 -58 -9 -40 2 -45 0 -42 -16 2 -11 11 -17 23 -15 17 3
17 2 5 -13 -12 -15 -14 -15 -22 -1 -12 21 -28 20 -43 0 -7 -10 -32 -19 -65
-22 -40 -4 -54 -9 -57 -23 -4 -12 -14 -19 -31 -19 -13 0 -31 -8 -38 -17 -18
-25 -18 -63 1 -63 22 0 18 -17 -5 -23 -26 -7 -20 -62 11 -91 l22 -21 -17 30
-18 30 25 -25 c27 -26 27 -33 1 -118 -5 -18 -3 -21 10 -16 11 4 16 1 16 -12 0
-14 -2 -16 -9 -6 -6 11 -11 10 -25 -3 -18 -18 -22 -50 -5 -39 6 3 3 -8 -6 -26
-9 -18 -12 -29 -7 -26 6 3 13 0 16 -6 4 -7 4 -3 2 10 -4 23 9 31 18 10 2 -7 3
4 1 24 -3 27 -1 36 9 32 8 -3 12 -16 9 -32 l-3 -27 10 25 c6 14 9 32 7 42 -3
9 0 19 7 22 7 3 7 5 -1 5 -7 1 -13 6 -13 12 0 5 5 7 10 4 6 -3 10 4 10 17 0
18 2 20 10 8 8 -13 10 -13 10 1 0 9 7 30 15 45 8 16 15 37 15 46 0 9 6 21 14
25 7 4 17 19 21 32 5 17 4 21 -5 16 -9 -6 -9 -3 -1 14 14 25 23 28 14 4 -6
-16 -5 -16 10 -4 9 7 17 17 17 22 0 11 56 85 121 160 48 55 64 84 34 59 -14
-11 -19 -7 -16 13 2 14 -8 7 -19 -14z m-36 -84 c-9 -14 -19 -23 -22 -20 -5 4
26 45 35 45 2 0 -4 -11 -13 -25z m-39 -55 c-3 -6 -12 -10 -18 -9 -9 0 -9 2 -1
5 7 3 10 15 7 27 -4 20 -3 20 7 4 6 -9 8 -22 5 -27z m-39 -15 c14 -13 14 -15
0 -15 -8 0 -16 -8 -18 -17 -3 -15 -5 -14 -10 5 -4 14 -2 20 5 15 6 -4 8 0 4
10 -8 21 0 22 19 2z m-49 -47 c-3 -8 -6 -5 -6 6 -1 11 2 17 5 13 3 -3 4 -12 1
-19z m-94 -116 c-3 -7 -9 -10 -12 -5 -3 4 -10 11 -15 15 -4 4 1 6 12 5 12 -1
18 -6 15 -15z m54 -14 c-3 -8 -6 -5 -6 6 -1 11 2 17 5 13 3 -3 4 -12 1 -19z
m-30 -10 c-3 -8 -6 -5 -6 6 -1 11 2 17 5 13 3 -3 4 -12 1 -19z"/>
<path d="M4826 4579 c2 -4 -3 -10 -12 -13 -13 -5 -14 -9 -4 -21 14 -17 30 -20
30 -4 0 5 -4 8 -9 4 -5 -3 -12 -1 -16 5 -3 5 -2 10 2 10 5 0 17 6 27 13 16 12
16 13 -3 13 -11 0 -18 -3 -15 -7z"/>
<path d="M3457 4569 c7 -9 11 -18 8 -21 -3 -3 4 -13 15 -23 16 -15 23 -16 33
-6 9 10 8 11 -6 5 -13 -5 -16 -2 -11 10 5 12 2 15 -12 9 -11 -4 -15 -3 -11 4
4 6 -1 17 -11 24 -15 12 -16 12 -5 -2z"/>
<path d="M6811 4554 c0 -11 3 -14 6 -6 3 7 2 16 -1 19 -3 4 -6 -2 -5 -13z"/>
<path d="M1912 4515 c0 -16 2 -22 5 -12 2 9 2 23 0 30 -3 6 -5 -1 -5 -18z"/>
<path d="M1892 4490 c0 -14 2 -19 5 -12 2 6 2 18 0 25 -3 6 -5 1 -5 -13z"/>
<path d="M3527 4493 c3 -7 9 -13 13 -13 4 0 10 6 13 13 3 7 -3 13 -13 13 -10
0 -16 -6 -13 -13z"/>
<path d="M4778 4503 c0 -5 -2 -13 -2 -20 -1 -7 -10 -19 -21 -28 -19 -15 -19
-15 5 -3 14 7 30 11 35 9 6 -1 4 3 -2 10 -16 16 -17 33 -1 23 7 -4 8 -3 4 4
-8 14 -15 15 -18 5z"/>
<path d="M5080 4495 c-7 -9 -11 -18 -8 -20 3 -3 11 1 18 10 7 9 11 18 8 20 -3
3 -11 -1 -18 -10z"/>
<path d="M3564 4477 c3 -20 17 -37 29 -36 9 0 9 2 0 5 -7 3 -10 11 -7 18 3 8
-1 16 -9 19 -8 3 -14 0 -13 -6z"/>
<path d="M6441 4479 c-1 -8 -10 -25 -21 -37 -11 -12 -20 -23 -20 -26 0 -16
-66 -66 -87 -66 -34 0 -90 -28 -112 -56 -10 -13 -24 -24 -30 -24 -7 0 -11 -33
-11 -98 0 -85 3 -101 20 -120 12 -12 30 -22 40 -22 11 0 20 -7 20 -15 0 -12
16 -15 80 -15 78 0 80 -1 86 -27 l7 -27 9 24 c5 12 6 32 3 44 -3 12 4 4 14
-18 l19 -39 7 128 c8 136 0 352 -15 388 -6 14 -9 17 -9 6z m0 -56 c-12 -20
-14 -14 -5 12 4 9 9 14 11 11 3 -2 0 -13 -6 -23z m-14 -65 c-3 -7 -5 -2 -5 12
0 14 2 19 5 13 2 -7 2 -19 0 -25z m-10 -80 c-3 -7 -5 -2 -5 12 0 14 2 19 5 13
2 -7 2 -19 0 -25z m40 -65 c-2 -16 -4 -3 -4 27 0 30 2 43 4 28 2 -16 2 -40 0
-55z"/>
<path d="M3224 4467 c-14 -17 -27 -80 -14 -72 6 3 10 17 10 31 0 14 4 22 10
19 6 -3 10 3 10 14 0 24 -1 25 -16 8z"/>
<path d="M1903 4425 c0 -22 2 -30 4 -17 2 12 2 30 0 40 -3 9 -5 -1 -4 -23z"/>
<path d="M4776 4442 c-3 -5 1 -9 9 -9 8 0 12 4 9 9 -3 4 -7 8 -9 8 -2 0 -6 -4
-9 -8z"/>
<path d="M3620 4420 c0 -5 5 -10 11 -10 5 0 7 5 4 10 -3 6 -8 10 -11 10 -2 0
-4 -4 -4 -10z"/>
<path d="M3661 4416 c-9 -11 -9 -16 1 -22 7 -4 10 -4 6 1 -4 4 -3 14 3 22 6 7
9 13 6 13 -2 0 -10 -6 -16 -14z"/>
<path d="M4715 4394 c-9 -14 -19 -38 -21 -52 -3 -22 -2 -24 6 -10 6 10 19 15
31 13 17 -3 19 -2 9 10 -7 8 -16 12 -21 9 -5 -3 -9 -1 -9 5 0 18 18 21 34 6
13 -14 16 -13 27 7 11 20 10 21 -2 11 -17 -14 -45 -1 -35 16 15 23 -3 10 -19
-15z"/>
<path d="M5081 4404 c0 -11 3 -14 6 -6 3 7 2 16 -1 19 -3 4 -6 -2 -5 -13z"/>
<path d="M3218 4367 c-3 -19 -2 -25 4 -19 6 6 8 18 6 28 -3 14 -5 12 -10 -9z"/>
<path d="M5070 4366 c0 -9 5 -16 10 -16 6 0 10 4 10 9 0 6 -4 13 -10 16 -5 3
-10 -1 -10 -9z"/>
<path d="M3705 4339 c-4 -6 -4 -13 0 -17 4 -4 10 -1 13 7 4 11 6 11 13 0 4 -7
11 -10 16 -6 4 5 1 12 -7 17 -20 13 -27 12 -35 -1z"/>
<path d="M1553 4275 c0 -33 2 -45 4 -27 2 18 2 45 0 60 -2 15 -4 0 -4 -33z"/>
<path d="M3720 4311 c0 -5 7 -12 16 -15 14 -5 15 -4 4 9 -14 17 -20 19 -20 6z"/>
<path d="M4675 4299 c-4 -6 -5 -12 -2 -15 2 -3 7 2 10 11 7 17 1 20 -8 4z"/>
<path d="M4688 4278 c-4 -11 -3 -18 3 -18 6 0 9 -7 5 -15 -8 -22 2 -18 15 6 6
13 7 19 1 15 -6 -3 -12 2 -14 11 -3 17 -4 17 -10 1z"/>
<path d="M1883 4265 c-3 -9 -3 -18 -1 -21 3 -3 8 4 11 16 6 23 -1 27 -10 5z"/>
<path d="M3212 4260 c0 -14 2 -19 5 -12 2 6 2 18 0 25 -3 6 -5 1 -5 -13z"/>
<path d="M4619 4245 c-1 -3 -2 -8 -3 -12 -1 -5 -5 -14 -10 -22 -6 -9 -5 -12 1
-8 6 4 13 0 17 -8 4 -10 -1 -14 -16 -12 -11 1 -22 -4 -24 -11 -1 -7 0 -8 3 -2
8 17 26 11 19 -7 -5 -13 0 -11 19 7 17 16 21 26 14 31 -8 4 -5 11 7 19 16 9
16 11 2 6 -20 -6 -34 10 -16 17 10 4 10 6 1 6 -7 1 -14 -1 -14 -4z"/>
<path d="M4639 4163 c-12 -16 -12 -17 2 -6 9 7 20 9 24 5 5 -4 5 -1 1 6 -9 16
-11 15 -27 -5z"/>
<path d="M1541 4134 c0 -11 3 -14 6 -6 3 7 2 16 -1 19 -3 4 -6 -2 -5 -13z"/>
<path d="M1811 4134 c0 -11 3 -14 6 -6 3 7 2 16 -1 19 -3 4 -6 -2 -5 -13z"/>
<path d="M4570 4141 c0 -7 -5 -9 -12 -5 -7 5 -8 3 -3 -5 5 -9 10 -10 18 -2 6
6 8 14 4 18 -4 3 -7 1 -7 -6z"/>
<path d="M6531 4105 c0 -38 2 -45 9 -28 5 12 5 34 0 50 -7 24 -8 21 -9 -22z"/>
<path d="M1781 4094 c0 -11 3 -14 6 -6 3 7 2 16 -1 19 -3 4 -6 -2 -5 -13z"/>
<path d="M4570 4099 c0 -5 5 -7 10 -4 6 3 10 8 10 11 0 2 -4 4 -10 4 -5 0 -10
-5 -10 -11z"/>
<path d="M4600 4088 c-12 -22 -12 -22 6 -6 10 10 15 20 12 24 -4 3 -12 -5 -18
-18z"/>
<path d="M1805 4090 c3 -5 8 -10 11 -10 2 0 4 5 4 10 0 6 -5 10 -11 10 -5 0
-7 -4 -4 -10z"/>
<path d="M4540 4085 c-7 -8 -16 -13 -20 -10 -5 3 -12 0 -16 -6 -4 -7 -3 -9 4
-5 5 3 12 2 14 -3 1 -5 11 2 21 15 19 26 17 33 -3 9z"/>
<path d="M1541 4074 c0 -11 3 -14 6 -6 3 7 2 16 -1 19 -3 4 -6 -2 -5 -13z"/>
<path d="M4550 4065 c-7 -9 -11 -17 -9 -20 3 -2 10 5 17 15 14 24 10 26 -8 5z"/>
<path d="M4605 4059 c-4 -6 -5 -12 -2 -15 2 -3 7 2 10 11 7 17 1 20 -8 4z"/>
<path d="M3205 4039 c-4 -6 -5 -12 -2 -15 2 -3 7 2 10 11 7 17 1 20 -8 4z"/>
<path d="M6520 4040 c0 -5 5 -10 11 -10 5 0 7 5 4 10 -3 6 -8 10 -11 10 -2 0
-4 -4 -4 -10z"/>
<path d="M1810 4021 c-5 -11 -11 -32 -11 -48 l-1 -28 -7 30 c-7 29 -7 29 -15
-15 -5 -25 -11 -37 -13 -27 -6 21 -21 22 -44 1 -9 -8 -23 -16 -31 -18 -7 -1
-35 -15 -61 -30 l-48 -28 8 -72 c4 -39 7 -102 7 -141 0 -50 2 -62 7 -40 7 26
7 24 7 -15 -2 -75 11 -128 30 -126 13 1 19 19 29 86 l12 85 -4 -75 c-2 -41 -1
-67 1 -57 5 14 17 17 74 17 48 0 73 5 84 15 8 9 18 15 21 15 4 -1 10 2 13 6 4
4 2 4 -4 1 -14 -8 -25 15 -23 46 1 17 3 15 9 -8 l8 -30 2 35 2 35 14 -30 15
-30 -6 30 c-4 17 -13 59 -21 95 l-14 65 6 -62 c3 -37 1 -64 -5 -68 -7 -4 -9 4
-5 23 4 19 1 34 -10 45 -13 12 -16 33 -14 91 2 42 6 76 11 76 4 0 7 9 7 20 0
11 -7 20 -15 20 -11 0 -15 11 -14 48 1 42 2 44 9 17 7 -25 8 -23 7 17 -1 27
-3 48 -4 48 -1 0 -7 -9 -13 -19z m5 -389 c-3 -3 -5 0 -5 7 0 7 -4 9 -10 6 -6
-4 -10 7 -10 27 l1 33 15 -34 c8 -19 12 -36 9 -39z m-175 -119 c0 -43 -5 -41
-13 5 -4 18 -2 32 3 32 6 0 10 -16 10 -37z"/>
<path d="M6821 3993 c-1 -23 3 -44 7 -47 4 -2 6 12 4 32 -5 56 -10 62 -11 15z"/>
<path d="M1910 3998 c0 -11 23 -51 33 -59 4 -3 8 -38 10 -77 1 -40 5 -72 9
-72 4 0 8 -10 10 -22 5 -32 28 -35 28 -4 0 14 5 26 10 26 6 0 10 -9 10 -19 0
-11 -4 -23 -10 -26 -14 -8 -13 -55 1 -55 17 0 69 62 69 83 0 9 5 17 10 17 6 0
10 33 10 80 0 44 -4 80 -9 80 -5 0 -11 8 -13 18 -4 15 -21 21 -87 28 -44 6
-81 6 -81 2z"/>
<path d="M3222 3975 c0 -16 2 -22 5 -12 2 9 2 23 0 30 -3 6 -5 -1 -5 -18z"/>
<path d="M3803 3985 c0 -8 4 -12 9 -9 5 3 6 10 3 15 -9 13 -12 11 -12 -6z"/>
<path d="M3120 3980 c0 -5 -7 -10 -15 -10 -8 0 -15 -4 -15 -8 0 -5 -11 -14
-25 -20 -14 -6 -25 -18 -25 -27 0 -10 -10 -15 -29 -15 -16 0 -36 -7 -45 -15
-8 -8 -22 -15 -31 -15 -9 0 -26 -10 -39 -22 -28 -29 -79 -50 -133 -55 -24 -3
-43 -9 -43 -13 0 -12 -59 -70 -71 -70 -5 0 -9 -4 -9 -10 0 -5 -18 -10 -40 -10
-29 0 -40 -4 -40 -15 0 -11 -11 -15 -40 -15 -33 0 -40 -3 -40 -20 0 -11 -4
-20 -8 -20 -4 0 -23 -15 -43 -34 -26 -25 -47 -36 -84 -42 -28 -4 -62 -16 -77
-27 -28 -20 -28 -22 -28 -129 0 -84 3 -110 14 -114 8 -3 16 -14 19 -25 3 -11
14 -19 26 -19 12 0 21 -6 21 -15 0 -12 16 -15 80 -15 64 0 80 3 80 15 0 11 11
15 40 15 22 0 40 4 40 9 0 23 63 71 91 71 37 0 69 16 69 35 0 9 13 15 38 17
32 3 37 7 40 31 3 24 7 27 43 27 21 0 39 4 39 8 0 5 18 15 40 22 22 7 40 16
40 20 0 4 18 13 40 20 22 7 40 17 40 22 0 5 21 8 48 7 39 -2 52 3 80 27 21 19
32 37 32 56 0 23 4 28 23 28 33 0 35 5 27 50 -8 41 -3 49 18 28 9 -9 12 -9 12
1 0 7 5 9 11 5 7 -4 2 12 -11 34 -13 23 -26 40 -29 37 -2 -3 1 -11 7 -17 7 -7
12 -19 12 -27 0 -12 -4 -11 -20 4 -23 24 -38 85 -21 85 8 0 10 -8 6 -21 -5
-15 -4 -19 4 -14 7 4 10 23 7 48 -2 23 -5 53 -5 67 l-1 24 -16 -22 c-8 -12
-13 -30 -10 -40 3 -9 1 -33 -3 -52 -8 -33 -9 -32 -7 16 1 44 -3 54 -29 78 -20
18 -26 29 -18 32 9 4 10 11 3 25 -11 20 -40 26 -40 9z m100 -255 c-7 -9 -15
-13 -18 -10 -3 2 1 11 8 20 7 9 15 13 18 10 3 -2 -1 -11 -8 -20z"/>
<path d="M5883 3983 c-100 -3 -123 -6 -123 -18 0 -8 -8 -15 -17 -15 -9 0 -45
-14 -80 -32 -50 -25 -63 -36 -63 -55 0 -20 -5 -23 -40 -23 -22 0 -40 -3 -40
-8 0 -10 -65 -32 -128 -42 -61 -10 -76 -20 -98 -66 -14 -30 -21 -34 -55 -34
-28 0 -39 -4 -39 -15 0 -11 -11 -15 -40 -15 -36 0 -40 -3 -40 -24 0 -14 -13
-38 -30 -54 -24 -24 -41 -31 -92 -36 -45 -5 -71 -14 -90 -31 -27 -23 -28 -27
-28 -130 0 -65 4 -105 10 -105 6 0 15 -11 20 -25 6 -15 17 -25 30 -25 11 0 20
-7 20 -15 0 -12 17 -15 98 -15 80 1 101 4 120 19 12 11 22 24 22 30 0 6 14 14
31 18 19 3 34 14 36 25 4 12 14 18 32 18 15 0 36 7 47 15 10 8 27 15 37 15 10
0 28 10 41 23 12 12 39 30 59 39 20 10 37 22 37 26 0 5 18 14 40 21 22 6 40
15 40 20 0 10 70 31 105 31 16 0 43 11 61 25 18 14 39 25 47 25 17 0 27 21 27
56 0 20 5 24 28 24 20 0 43 13 72 40 24 22 47 40 52 40 4 0 8 4 8 9 0 5 14 23
30 39 28 29 30 35 30 107 0 76 -18 128 -44 123 -6 -1 -66 -4 -133 -5z"/>
<path d="M1551 3964 c0 -11 3 -14 6 -6 3 7 2 16 -1 19 -3 4 -6 -2 -5 -13z"/>
<path d="M4467 3961 c-4 -17 -3 -21 5 -13 5 5 8 16 6 23 -3 8 -7 3 -11 -10z"/>
<path d="M3782 3954 c10 -10 20 -16 22 -13 3 3 -5 11 -17 18 -21 13 -21 12 -5
-5z"/>
<path d="M1911 3944 c0 -11 3 -14 6 -6 3 7 2 16 -1 19 -3 4 -6 -2 -5 -13z"/>
<path d="M4498 3932 c2 -7 -1 -12 -9 -10 -7 2 -14 -6 -16 -17 l-3 -20 9 20 c8
16 10 17 10 3 1 -9 5 -20 11 -23 6 -3 7 1 4 9 -6 16 19 49 30 39 3 -4 6 -2 6
4 0 6 -11 10 -24 9 -15 0 -22 -6 -18 -14z"/>
<path d="M3202 3920 c0 -14 2 -19 5 -12 2 6 2 18 0 25 -3 6 -5 1 -5 -13z"/>
<path d="M4416 3923 c-6 -14 -5 -15 5 -6 7 7 10 15 7 18 -3 3 -9 -2 -12 -12z"/>
<path d="M4431 3905 c-19 -21 -21 -28 -11 -40 10 -13 10 -21 0 -43 -7 -15 -15
-36 -17 -47 -2 -18 0 -17 18 5 l22 25 -7 -25 c-7 -24 -6 -24 8 -6 18 22 22 51
6 41 -6 -4 -10 7 -10 24 0 17 -5 31 -11 31 -5 0 -7 5 -3 12 5 8 14 4 27 -13
16 -19 19 -20 12 -4 -5 11 -8 30 -8 43 1 27 3 27 -26 -3z"/>
<path d="M3791 3904 c0 -11 3 -14 6 -6 3 7 2 16 -1 19 -3 4 -6 -2 -5 -13z"/>
<path d="M6520 3910 c0 -5 5 -10 11 -10 5 0 7 5 4 10 -3 6 -8 10 -11 10 -2 0
-4 -4 -4 -10z"/>
<path d="M6436 3895 c-9 -26 -7 -32 5 -12 6 10 9 21 6 23 -2 3 -7 -2 -11 -11z"/>
<path d="M6812 3890 c0 -14 2 -19 5 -12 2 6 2 18 0 25 -3 6 -5 1 -5 -13z"/>
<path d="M4334 3817 c-51 -68 -59 -84 -48 -95 19 -19 17 -30 -6 -37 -11 -3
-21 -12 -22 -18 0 -7 -2 -16 -2 -22 -1 -5 -5 -16 -10 -23 -13 -21 2 -27 22 -9
17 15 19 15 34 -2 9 -11 15 -22 12 -25 -15 -22 17 16 40 47 26 36 29 67 7 67
-6 0 -18 -11 -27 -25 -13 -19 -14 -28 -5 -39 7 -8 8 -17 3 -20 -6 -3 -15 0
-21 8 -14 17 14 73 42 82 9 3 17 13 17 22 0 9 7 26 15 36 11 14 12 23 4 32 -7
9 -7 18 1 31 9 16 10 15 5 -7 -5 -19 -4 -22 4 -10 13 19 14 50 1 50 -5 0 -17
-11 -26 -25 -9 -14 -19 -23 -22 -21 -3 3 8 22 23 41 15 20 25 38 23 40 -2 2
-31 -33 -64 -78z m16 -42 c0 -14 -9 -33 -19 -42 -11 -9 -17 -21 -14 -26 3 -6
1 -7 -5 -3 -9 5 -9 13 -2 26 9 16 8 18 -7 13 -14 -5 -13 -1 6 25 27 38 41 41
41 7z m8 -115 c-13 -20 -28 -27 -28 -12 0 10 22 32 32 32 5 0 3 -9 -4 -20z"/>
<path d="M6405 3890 c3 -5 8 -10 11 -10 2 0 4 5 4 10 0 6 -5 10 -11 10 -5 0
-7 -4 -4 -10z"/>
<path d="M3736 3867 c3 -10 9 -15 12 -12 3 3 0 11 -7 18 -10 9 -11 8 -5 -6z"/>
<path d="M4826 3834 c-14 -26 -19 -41 -11 -34 8 6 17 20 20 31 4 10 13 19 20
19 8 0 17 4 20 10 4 6 -1 7 -11 3 -12 -4 -15 -3 -10 5 4 7 5 12 2 12 -2 0 -16
-21 -30 -46z"/>
<path d="M6500 3869 c0 -6 4 -8 9 -4 5 3 11 -3 13 -12 3 -16 5 -15 9 2 5 16 1
21 -12 22 -11 1 -19 -3 -19 -8z"/>
<path d="M1906 3855 c4 -8 8 -15 10 -15 2 0 4 7 4 15 0 8 -4 15 -10 15 -5 0
-7 -7 -4 -15z"/>
<path d="M3441 3856 c-2 -18 23 -86 31 -86 11 0 10 41 -2 60 -5 8 -10 11 -11
5 0 -5 -4 -1 -9 10 -5 11 -9 16 -9 11z"/>
<path d="M4485 3850 c-3 -5 -1 -10 4 -10 6 0 11 5 11 10 0 6 -2 10 -4 10 -3 0
-8 -4 -11 -10z"/>
<path d="M1561 3815 c0 -22 4 -47 9 -55 8 -12 9 -10 9 10 -1 14 -5 39 -9 55
-7 29 -8 29 -9 -10z"/>
<path d="M6431 3834 c0 -11 3 -14 6 -6 3 7 2 16 -1 19 -3 4 -6 -2 -5 -13z"/>
<path d="M6830 3841 c0 -5 -9 -7 -20 -4 -14 4 -30 -3 -45 -17 -14 -13 -25 -20
-25 -15 0 5 -5 4 -12 -3 -7 -7 -32 -12 -56 -12 -59 0 -82 -14 -82 -50 0 -20
-5 -30 -15 -30 -8 0 -15 -8 -15 -17 0 -15 -2 -16 -10 -3 -7 11 -10 12 -10 2 0
-8 -8 -24 -18 -37 -13 -17 -23 -20 -34 -14 -13 7 -18 2 -27 -23 -14 -40 -14
-42 4 -24 8 8 15 20 15 26 0 6 5 8 10 5 6 -3 10 -22 10 -42 0 -30 -3 -35 -20
-30 -21 5 -28 -7 -10 -18 6 -3 10 -14 10 -23 0 -13 -2 -13 -14 3 -13 18 -14
18 -9 -8 3 -15 9 -30 14 -33 5 -3 9 -11 9 -17 0 -7 -4 -6 -10 3 -7 12 -10 8
-10 -14 0 -40 -9 -28 -11 15 -3 69 -12 77 -25 24 -16 -61 -17 -68 -4 -60 6 3
10 0 10 -9 0 -8 6 -17 13 -20 6 -3 3 -4 -8 -3 -11 1 -23 6 -27 11 -3 5 -11
-10 -18 -33 -6 -23 -14 -50 -17 -59 -6 -15 -4 -15 10 -4 14 12 15 9 12 -28 -5
-52 -7 -54 -31 -34 -10 8 -14 13 -9 10 6 -2 17 0 25 5 13 8 13 10 0 19 -17 11
-44 -16 -36 -35 2 -6 -7 -12 -20 -13 -24 -2 -28 6 -25 41 1 9 -3 17 -8 17 -6
0 -11 5 -11 11 0 6 7 8 16 5 10 -4 13 -2 8 6 -4 6 -1 16 7 22 20 15 44 94 41
131 -2 19 0 25 6 18 5 -8 15 16 28 67 12 44 18 80 14 80 -4 0 -11 -10 -15 -22
-21 -62 -23 -64 -24 -33 -1 17 -6 37 -11 45 -9 13 -12 13 -21 -3 -17 -29 -52
-57 -80 -65 -14 -4 -40 -19 -57 -34 l-32 -27 0 -101 c0 -99 1 -102 29 -131 16
-16 34 -29 40 -29 6 0 11 -11 11 -25 0 -24 2 -25 71 -25 44 0 68 -4 64 -10
-13 -22 15 -8 48 23 19 17 56 43 82 57 26 14 50 33 53 43 3 11 14 17 32 17 16
0 35 7 44 15 8 8 20 15 26 15 26 0 71 32 66 46 -9 24 5 98 15 82 5 -7 9 -23 9
-36 0 -13 4 -20 10 -17 6 3 7 17 4 31 -4 14 -2 24 5 24 6 0 10 12 10 28 -1 16
-3 20 -6 10 -2 -10 -13 -18 -24 -18 -15 0 -19 7 -18 33 0 31 0 32 10 7 10 -25
11 -25 25 15 7 22 14 42 14 44 0 2 7 0 16 -3 12 -4 14 -1 9 13 -3 11 -1 22 5
26 12 7 14 65 1 65 -4 0 -8 27 -7 59 1 61 16 63 16 2 0 -19 2 -32 5 -30 7 8
17 129 11 129 -3 0 -6 -4 -6 -9z m-23 -203 c-3 -8 -6 -5 -6 6 -1 11 2 17 5 13
3 -3 4 -12 1 -19z m-464 -63 c-7 -21 -13 -19 -13 6 0 11 4 18 10 14 5 -3 7
-12 3 -20z m6 -58 c0 -21 -1 -21 -9 -2 -12 28 -12 37 0 30 6 -3 10 -16 9 -28z
m-89 -26 c0 -6 -4 -12 -8 -15 -5 -3 -9 1 -9 9 0 8 4 15 9 15 4 0 8 -4 8 -9z
m77 -63 c-3 -7 -5 -2 -5 12 0 14 2 19 5 13 2 -7 2 -19 0 -25z m-47 -59 c-7
-11 -12 -40 -13 -64 -2 -49 -15 -37 -19 17 -1 19 5 42 13 51 20 23 32 21 19
-4z m-30 -129 c0 -5 -2 -10 -4 -10 -3 0 -8 5 -11 10 -3 6 -1 10 4 10 6 0 11
-4 11 -10z"/>
<path d="M1842 3815 c0 -16 2 -22 5 -12 2 9 2 23 0 30 -3 6 -5 -1 -5 -18z"/>
<path d="M1911 3770 c0 -8 8 -46 18 -85 11 -38 20 -61 20 -50 1 11 -8 49 -18
85 -11 36 -20 58 -20 50z"/>
<path d="M4789 3778 c-5 -18 -6 -59 -2 -54 7 6 13 56 7 56 -2 0 -4 -1 -5 -2z"/>
<path d="M3495 3760 c3 -5 1 -18 -4 -29 -8 -13 -8 -27 -1 -43 l11 -23 -5 23
c-3 13 -2 30 1 38 4 12 8 11 20 -3 10 -14 10 -10 -2 15 -8 17 -18 32 -21 32
-3 0 -2 -4 1 -10z"/>
<path d="M6405 3750 c-3 -6 1 -7 9 -4 18 7 21 14 7 14 -6 0 -13 -4 -16 -10z"/>
<path d="M3781 3724 c0 -11 3 -14 6 -6 3 7 2 16 -1 19 -3 4 -6 -2 -5 -13z"/>
<path d="M4400 3721 c0 -5 -8 -12 -17 -14 -14 -4 -12 -5 5 -6 13 -1 22 5 22
14 0 8 -2 15 -5 15 -3 0 -5 -4 -5 -9z"/>
<path d="M1950 3699 c0 -5 5 -7 10 -4 6 3 10 8 10 11 0 2 -4 4 -10 4 -5 0 -10
-5 -10 -11z"/>
<path d="M1980 3689 c0 -11 -4 -17 -10 -14 -6 4 -9 -9 -9 -32 2 -30 3 -32 6
-10 2 15 9 25 14 22 5 -4 9 8 9 24 0 17 -2 31 -5 31 -3 0 -5 -9 -5 -21z"/>
<path d="M4730 3695 c-8 -9 -8 -15 -2 -15 12 0 26 19 19 26 -2 2 -10 -2 -17
-11z"/>
<path d="M4765 3700 c-3 -5 -1 -10 4 -10 6 0 11 5 11 10 0 6 -2 10 -4 10 -3 0
-8 -4 -11 -10z"/>
<path d="M3287 3694 c-11 -11 -8 -36 2 -29 6 3 14 -3 20 -12 15 -26 13 -2 -2
25 -7 12 -16 19 -20 16z"/>
<path d="M4160 3599 c-41 -50 -89 -107 -107 -127 -23 -26 -29 -38 -20 -44 7
-4 8 -8 2 -9 -5 -1 -15 -2 -22 -3 -6 0 -35 -23 -64 -51 -53 -51 -90 -67 -82
-36 2 9 -3 25 -11 36 -14 19 -14 18 -12 -17 2 -21 -1 -38 -5 -38 -5 0 -9 14
-9 30 0 17 -4 30 -10 30 -5 0 -10 9 -10 19 0 11 -4 23 -10 26 -5 3 -10 11 -10
17 0 6 3 9 6 5 8 -8 34 18 34 33 0 6 -5 8 -12 4 -8 -5 -9 -2 -5 10 4 9 2 40
-4 69 -13 60 -32 90 -24 37 5 -29 4 -31 -4 -12 -14 31 -17 28 -15 -23 1 -29
-2 -42 -9 -38 -7 4 -8 0 -2 -13 4 -10 9 -41 11 -69 2 -27 3 -52 4 -55 0 -3 5
2 10 10 7 11 10 2 10 -32 0 -36 -4 -48 -15 -48 -8 0 -15 -7 -15 -15 0 -10 -11
-15 -37 -16 l-38 -2 40 -7 40 -7 -42 -2 c-24 0 -43 4 -43 9 0 6 -18 10 -41 10
-36 0 -40 -2 -37 -22 2 -19 10 -24 41 -26 24 -2 37 -8 37 -18 0 -20 148 -21
156 0 3 7 23 16 45 20 21 3 39 11 39 16 0 6 7 10 15 10 9 0 18 7 21 15 4 8 15
15 25 15 10 0 19 4 19 9 0 20 -22 22 -47 6 -20 -14 -27 -15 -34 -4 -8 14 -3
29 11 29 5 0 6 -7 3 -17 -4 -11 -3 -14 6 -9 7 5 10 14 7 22 -3 7 0 16 6 20 7
4 8 3 4 -4 -10 -17 10 -15 27 3 8 8 18 11 21 7 4 -3 4 1 0 11 -3 9 -11 14 -16
11 -6 -4 -8 -1 -6 7 3 8 13 13 23 11 9 -2 26 4 36 14 11 9 22 14 27 9 4 -4 1
-10 -6 -12 -23 -8 -43 -35 -38 -50 3 -8 2 -12 -2 -9 -13 8 -35 -11 -28 -23 11
-16 20 -14 51 14 20 20 30 23 40 15 10 -8 15 -8 21 1 4 8 3 9 -4 5 -16 -10
-15 7 1 23 10 10 8 12 -8 9 -15 -2 -19 2 -17 15 2 12 -4 21 -17 24 -26 7 -26
9 0 36 18 18 21 19 16 4 -4 -11 -1 -20 8 -23 8 -4 12 -10 9 -15 -3 -5 7 -9 21
-9 14 0 24 4 21 9 -3 5 2 12 11 16 10 3 19 1 21 -4 2 -6 8 -9 13 -6 5 4 -2 18
-16 33 -27 29 -30 40 -15 62 8 11 9 7 4 -14 -6 -25 -5 -27 12 -18 11 6 30 23
44 39 21 23 25 39 26 91 0 34 0 62 0 61 -1 0 -35 -41 -76 -90z m64 39 c-5 -7
-9 -17 -9 -22 0 -5 -6 -11 -14 -14 -10 -3 -9 4 5 26 10 17 20 30 22 27 2 -2 0
-10 -4 -17z m6 -63 c0 -8 -7 -15 -16 -15 -14 0 -14 3 -4 15 7 8 14 15 16 15 2
0 4 -7 4 -15z m-66 -11 c3 -8 2 -12 -4 -9 -13 8 -43 -42 -36 -61 5 -14 4 -15
-9 -4 -13 11 -11 17 13 51 15 21 28 39 28 39 1 0 5 -7 8 -16z m-364 -23 c0 -6
-4 -13 -10 -16 -5 -3 -10 1 -10 9 0 9 5 16 10 16 6 0 10 -4 10 -9z m-23 -63
c-3 -8 -6 -5 -6 6 -1 11 2 17 5 13 3 -3 4 -12 1 -19z m329 -5 c-7 -7 -26 7
-26 19 0 6 6 6 15 -2 9 -7 13 -15 11 -17z m-126 -113 c0 -5 -4 -10 -10 -10 -5
0 -10 5 -10 10 0 6 5 10 10 10 6 0 10 -4 10 -10z"/>
<path d="M3534 3660 c0 -10 2 -17 5 -15 2 3 10 0 18 -6 9 -9 13 -8 13 0 0 6
-4 11 -10 11 -5 0 -10 7 -10 15 0 8 -4 15 -8 15 -4 0 -8 -9 -8 -20z"/>
<path d="M4689 3657 c-37 -39 -48 -57 -36 -57 7 0 17 10 22 23 6 12 16 22 23
22 6 0 12 4 13 8 1 16 -9 18 -22 4z"/>
<path d="M3543 3615 c0 -8 4 -12 9 -9 5 3 6 10 3 15 -9 13 -12 11 -12 -6z"/>
<path d="M6360 3620 c0 -5 5 -10 10 -10 6 0 10 5 10 10 0 6 -4 10 -10 10 -5 0
-10 -4 -10 -10z"/>
<path d="M3330 3612 c0 -12 19 -26 26 -19 2 2 -2 10 -11 17 -9 8 -15 8 -15 2z"/>
<path d="M3576 3598 c3 -5 10 -6 15 -3 13 9 11 12 -6 12 -8 0 -12 -4 -9 -9z"/>
<path d="M1972 3580 c0 -14 2 -19 5 -12 2 6 2 18 0 25 -3 6 -5 1 -5 -13z"/>
<path d="M4255 3580 c-12 -37 -14 -79 -5 -85 6 -4 7 1 3 11 -4 12 -3 15 5 10
8 -5 10 -1 5 10 -5 14 -3 16 11 11 9 -4 15 -3 11 2 -3 5 0 11 6 13 16 5 1 48
-16 48 -8 0 -17 -9 -20 -20z m29 -14 c-3 -8 -12 -17 -20 -20 -12 -4 -12 -2 -4
14 12 23 32 27 24 6z"/>
<path d="M3559 3581 c12 -8 12 -12 2 -24 -9 -11 -9 -17 -1 -22 6 -4 15 -17 20
-29 l9 -21 0 22 c1 27 17 38 25 17 9 -24 7 -31 -5 -14 -8 12 -9 10 -4 -9 4
-12 18 -39 32 -59 14 -21 22 -45 19 -56 -4 -14 -2 -16 7 -7 6 6 20 11 30 11
16 0 19 -6 15 -40 -3 -36 -1 -40 19 -40 18 0 22 6 25 38 2 24 -2 42 -12 50
-13 12 -13 13 3 8 9 -3 17 -3 17 -1 0 3 -8 13 -17 23 -24 24 -95 109 -105 124
-4 7 -8 8 -8 3 0 -6 7 -20 15 -32 10 -15 12 -24 4 -28 -6 -4 -8 -13 -5 -21 3
-8 0 -11 -9 -8 -11 5 -12 10 -2 24 9 15 8 23 -7 39 -10 11 -22 19 -26 16 -4
-2 -12 7 -18 20 -7 14 -17 25 -24 25 -9 0 -9 -3 1 -9z m26 -49 c-8 -8 -25 10
-19 20 4 6 9 5 15 -3 4 -7 6 -15 4 -17z m99 -64 c-9 -14 -23 2 -17 18 4 12 8
13 14 3 4 -7 5 -17 3 -21z m42 -46 c-6 -5 -36 23 -36 34 0 4 9 -1 20 -11 11
-10 18 -20 16 -23z m-20 -15 c4 -4 0 -7 -9 -7 -9 0 -18 4 -21 9 -7 10 20 9 30
-2z"/>
<path d="M4700 3579 c0 -5 5 -7 10 -4 6 3 10 8 10 11 0 2 -4 4 -10 4 -5 0 -10
-5 -10 -11z"/>
<path d="M3325 3570 c3 -5 8 -10 11 -10 2 0 4 5 4 10 0 6 -5 10 -11 10 -5 0
-7 -4 -4 -10z"/>
<path d="M1885 3550 c3 -5 8 -10 11 -10 2 0 4 5 4 10 0 6 -5 10 -11 10 -5 0
-7 -4 -4 -10z"/>
<path d="M3367 3549 c10 -10 10 -16 0 -28 -11 -14 -10 -14 6 -2 9 7 17 17 17
21 0 4 -8 11 -17 15 -14 5 -15 4 -6 -6z"/>
<path d="M1980 3540 c-8 -5 -12 -12 -9 -15 4 -3 12 1 19 10 14 17 11 19 -10 5z"/>
<path d="M1900 3511 c0 -6 4 -13 10 -16 6 -3 7 1 4 9 -7 18 -14 21 -14 7z"/>
<path d="M3395 3502 c4 -10 0 -12 -12 -8 -13 5 -15 4 -7 -4 14 -14 54 -21 54
-9 0 5 -5 9 -11 9 -6 0 -9 6 -6 13 3 8 -1 14 -9 14 -9 0 -13 -6 -9 -15z"/>
<path d="M4582 3486 c0 -11 2 -16 6 -10 4 6 14 13 22 16 11 3 9 6 -6 10 -15 4
-20 0 -22 -16z"/>
<path d="M1881 3484 c0 -11 3 -14 6 -6 3 7 2 16 -1 19 -3 4 -6 -2 -5 -13z"/>
<path d="M4546 3478 c3 -5 10 -6 15 -3 13 9 11 12 -6 12 -8 0 -12 -4 -9 -9z"/>
<path d="M3446 3467 c3 -10 9 -15 12 -12 3 3 0 11 -7 18 -10 9 -11 8 -5 -6z"/>
<path d="M4436 3435 c-11 -8 -16 -15 -10 -15 5 0 18 7 28 15 11 8 16 15 10 15
-5 0 -18 -7 -28 -15z"/>
<path d="M1630 3431 c0 -6 4 -13 10 -16 6 -3 7 1 4 9 -7 18 -14 21 -14 7z"/>
<path d="M3450 3436 c0 -2 8 -10 18 -17 15 -13 16 -12 3 4 -13 16 -21 21 -21
13z"/>
<path d="M3622 3415 c6 -14 13 -24 14 -22 6 6 -9 47 -17 47 -5 0 -3 -11 3 -25z"/>
<path d="M3821 3404 c0 -11 3 -14 6 -6 3 7 2 16 -1 19 -3 4 -6 -2 -5 -13z"/>
<path d="M6730 3405 c0 -8 4 -15 10 -15 5 0 7 7 4 15 -4 8 -8 15 -10 15 -2 0
-4 -7 -4 -15z"/>
<path d="M3524 3395 c1 -8 5 -18 9 -21 4 -4 1 -14 -5 -23 -10 -13 -10 -14 2
-3 18 16 32 15 56 -3 18 -15 18 -16 -11 -12 -16 2 -24 2 -17 0 6 -3 12 -8 12
-13 0 -4 11 -7 23 -6 45 2 17 40 -46 60 -10 3 -16 10 -12 15 3 5 1 12 -4 15
-5 4 -8 -1 -7 -9z"/>
<path d="M4455 3400 c-3 -6 1 -7 9 -4 18 7 21 14 7 14 -6 0 -13 -4 -16 -10z"/>
<path d="M4125 3356 c1 -12 6 -19 10 -16 13 7 13 37 0 37 -6 0 -11 -10 -10
-21z"/>
<path d="M4325 3370 c-13 -6 -15 -9 -5 -9 8 0 22 4 30 9 18 12 2 12 -25 0z"/>
<path d="M1940 3354 c0 -8 5 -12 10 -9 6 4 8 11 5 16 -9 14 -15 11 -15 -7z"/>
<path d="M4275 3352 c-5 -4 -11 -13 -13 -20 -2 -10 2 -10 18 -2 11 6 20 15 20
20 0 12 -11 13 -25 2z"/>
<path d="M4338 3343 c7 -3 16 -2 19 1 4 3 -2 6 -13 5 -11 0 -14 -3 -6 -6z"/>
<path d="M3620 3336 c0 -2 8 -10 18 -17 15 -13 16 -12 3 4 -13 16 -21 21 -21
13z"/>
<path d="M1960 3289 c0 -5 5 -7 10 -4 6 3 10 8 10 11 0 2 -4 4 -10 4 -5 0 -10
-5 -10 -11z"/>
<path d="M4123 3283 c-4 -10 -11 -21 -16 -25 -6 -3 2 -5 16 -5 15 1 29 7 31
14 3 7 -1 10 -10 6 -7 -3 -14 -1 -14 5 0 6 6 13 13 15 9 4 9 6 -1 6 -7 1 -16
-7 -19 -16z"/>
<path d="M2070 3271 c0 -7 -5 -9 -12 -5 -7 5 -8 3 -3 -5 5 -9 10 -10 18 -2 6
6 8 14 4 18 -4 3 -7 1 -7 -6z"/>
<path d="M4088 3273 c7 -3 16 -2 19 1 4 3 -2 6 -13 5 -11 0 -14 -3 -6 -6z"/>
<path d="M4087 3239 c7 -7 15 -10 18 -7 3 3 -2 9 -12 12 -14 6 -15 5 -6 -5z"/>
<path d="M6671 3210 c0 -8 4 -22 9 -30 12 -18 12 -2 0 25 -6 13 -9 15 -9 5z"/>
<path d="M3164 3201 c-23 -4 -56 -19 -73 -34 -18 -15 -37 -27 -42 -27 -5 0 -9
-9 -9 -20 0 -16 -7 -20 -35 -20 -19 0 -38 -6 -42 -14 -4 -8 -21 -16 -38 -18
-19 -2 -33 -11 -40 -25 -8 -19 -20 -23 -87 -29 -43 -4 -78 -11 -78 -15 0 -5
-7 -9 -15 -9 -11 0 -15 -11 -15 -40 0 -40 0 -40 -38 -40 -21 0 -47 -7 -58 -15
-10 -8 -26 -15 -35 -15 -24 0 -53 -36 -45 -57 6 -15 8 -15 16 -3 6 8 10 11 10
5 0 -14 -18 -41 -23 -35 -2 3 -10 14 -16 25 -11 17 -12 16 -6 -15 5 -32 4 -33
-10 -15 -15 20 -15 19 -39 -7 -28 -31 -46 -36 -46 -12 0 11 -5 14 -17 9 -10
-4 -32 -11 -50 -16 -18 -6 -46 -23 -63 -40 -29 -30 -30 -32 -30 -131 0 -97 1
-100 29 -129 16 -16 34 -29 39 -29 5 0 13 -7 16 -16 5 -13 20 -15 93 -12 57 2
88 7 91 16 2 6 11 12 20 12 10 0 34 18 55 40 28 30 45 40 68 40 38 0 69 16 69
35 0 12 14 15 63 15 64 0 91 10 93 32 0 7 2 31 3 53 2 35 3 37 11 18 11 -27
30 -30 31 -5 1 11 4 9 9 -8 7 -23 8 -23 9 -3 1 12 -3 24 -8 27 -4 3 -6 18 -3
33 5 25 6 25 13 8 5 -13 8 5 8 48 1 64 2 67 20 57 11 -5 25 -26 32 -44 7 -19
16 -33 21 -30 4 3 8 0 8 -6 0 -6 4 -9 9 -6 5 3 11 -4 14 -16 4 -12 9 -19 13
-15 4 3 -1 18 -10 32 -12 17 -15 37 -11 63 l5 37 -12 -37 -13 -38 -19 39 c-12
25 -23 38 -32 34 -8 -3 -14 1 -14 11 0 13 11 16 49 16 41 0 53 4 69 25 30 37
42 31 42 -21 0 -46 0 -46 29 -41 21 4 31 2 35 -9 11 -30 5 -39 -9 -14 -13 23
-14 16 -15 -81 0 -70 -4 -109 -12 -118 -11 -10 -10 -11 5 -6 17 7 23 41 18
112 -1 18 2 39 6 48 6 10 8 -7 7 -49 -1 -39 3 -72 11 -82 10 -14 12 1 12 85 0
56 2 103 4 105 7 7 169 16 169 10 0 -4 -17 -22 -37 -40 -20 -19 -32 -34 -26
-34 7 0 18 7 27 15 26 26 31 17 31 -60 1 -52 -3 -74 -10 -71 -7 2 -12 -2 -12
-10 0 -8 6 -13 14 -10 7 3 13 -1 13 -8 0 -11 -8 -12 -41 -4 -51 14 -77 -4 -35
-23 15 -7 25 -18 22 -25 -4 -10 0 -11 19 -2 19 8 28 8 42 -3 11 -9 14 -10 9
-1 -4 7 -2 12 4 12 6 0 9 4 6 8 -2 4 5 9 16 9 19 2 19 1 4 -16 -9 -10 -16 -29
-16 -44 0 -31 -25 -58 -45 -51 -8 4 -15 10 -15 14 0 4 -15 10 -34 12 -19 2
-32 0 -30 -4 7 -11 -13 -10 -39 3 -22 10 -22 10 -2 -6 14 -12 32 -15 60 -11
22 3 32 2 23 -2 -15 -6 -15 -9 -2 -27 13 -17 16 -18 24 -5 8 13 10 12 10 -2 0
-10 -5 -18 -11 -18 -6 0 -7 -5 -2 -12 14 -23 13 -46 -2 -52 -10 -3 -12 0 -8
12 6 16 5 16 -14 0 -23 -21 -93 -24 -111 -6 -10 10 -15 10 -21 -1 -11 -17 -71
-25 -71 -10 0 5 5 7 11 3 8 -4 8 0 0 15 -7 11 -19 21 -29 21 -16 -1 -16 -2 1
-14 12 -9 14 -16 8 -21 -14 -8 -31 3 -31 21 0 8 -9 14 -22 14 -22 -1 -22 -2 6
-26 l29 -26 -23 -21 c-16 -15 -24 -18 -27 -9 -7 18 -72 15 -79 -3 -4 -8 -15
-15 -27 -15 -11 0 -44 -16 -73 -35 -41 -27 -63 -35 -98 -35 -34 0 -46 -4 -46
-15 0 -9 -9 -15 -25 -15 -22 0 -25 -4 -25 -39 l0 -38 -82 -7 c-46 -4 -93 -8
-105 -9 -34 -3 -9 -20 28 -19 18 0 35 6 39 12 4 6 7 -3 7 -20 0 -29 -1 -29
-19 -13 -10 9 -21 13 -25 10 -8 -9 48 -53 64 -49 7 2 13 -4 13 -12 0 -9 7 -12
20 -9 14 4 21 -1 26 -21 3 -14 12 -26 19 -26 7 0 15 -6 18 -12 3 -10 8 -10 21
1 9 8 19 11 23 7 3 -3 1 -6 -5 -6 -18 0 -15 -27 4 -34 8 -3 12 -2 9 4 -9 15
27 11 49 -5 15 -11 16 -17 7 -29 -9 -11 -8 -15 5 -20 23 -9 31 -7 14 4 -18 12
-2 12 25 0 11 -5 14 -9 8 -9 -7 -1 -13 -5 -13 -11 0 -5 13 -8 30 -7 34 2 38
11 13 26 -10 6 -15 11 -10 11 4 0 17 -6 28 -13 17 -9 23 -9 26 1 3 6 11 12 18
12 8 0 20 6 27 13 23 21 68 37 108 37 21 0 45 7 54 15 8 8 17 15 20 15 7 0 66
61 66 68 0 9 62 50 113 76 21 10 41 26 45 35 3 9 18 31 34 49 17 20 28 44 28
62 0 27 -3 30 -30 30 -21 0 -30 5 -30 16 0 14 8 16 54 11 30 -3 64 -3 75 0 20
5 20 5 -1 22 -19 16 -21 27 -20 115 2 99 -4 129 -19 105 -4 -7 -5 6 -2 28 5
41 5 42 -27 45 l-32 3 0 68 c1 37 1 84 1 105 l1 38 69 2 68 3 -1 -80 c-2 -66
0 -78 12 -73 10 3 13 1 8 -6 -4 -7 -2 -12 3 -12 15 0 14 37 -1 43 -10 3 -10 7
1 20 7 10 9 17 4 17 -5 0 -10 12 -11 28 -1 21 0 24 9 12 8 -12 9 -7 6 18 -3
30 -2 33 17 27 12 -4 36 -9 54 -12 17 -3 32 -10 32 -15 0 -6 -13 -8 -30 -6
-16 3 -31 2 -31 -1 -1 -3 -2 -18 -3 -33 -2 -27 0 -28 50 -28 l52 0 -3 49 c-2
37 1 48 11 47 7 -1 17 -5 20 -9 4 -4 13 -2 21 5 7 6 17 7 21 3 4 -4 1 -10 -5
-12 -7 -3 -13 -15 -13 -28 0 -13 -4 -27 -10 -30 -15 -9 -12 -72 6 -106 8 -17
13 -37 10 -44 -3 -8 0 -16 7 -19 8 -3 6 -5 -3 -5 -8 0 -22 4 -30 9 -10 6 -11
10 -2 10 6 0 12 5 12 12 0 6 -7 4 -18 -5 -26 -24 -29 -22 -24 19 3 28 1 35 -9
32 -16 -5 -19 -30 -6 -39 16 -11 -1 -26 -38 -33 -32 -6 -50 -26 -24 -26 5 0 7
-5 4 -10 -4 -6 -11 -8 -16 -4 -6 3 -8 -5 -5 -20 3 -14 0 -28 -5 -31 -5 -4 -9
-1 -9 6 0 6 -9 1 -21 -12 l-20 -24 6 23 c7 23 -9 32 -17 10 -6 -17 16 -71 25
-62 4 4 7 2 7 -4 0 -7 5 -12 11 -12 8 0 9 11 5 33 -4 21 -3 27 3 18 7 -11 13
-5 25 24 9 21 19 49 22 62 9 32 61 33 73 1 10 -26 -15 -50 -29 -29 -3 7 -8 -9
-8 -35 -1 -26 3 -53 9 -61 9 -10 9 -17 1 -25 -18 -18 -14 -38 6 -38 13 0 23
13 32 43 8 23 17 47 21 53 5 5 6 20 2 32 -4 16 -1 22 11 22 9 0 16 7 16 15 0
8 9 19 20 25 16 9 20 8 20 -5 0 -9 5 -13 10 -10 6 4 8 16 4 28 -3 12 -3 19 1
15 13 -13 16 -70 3 -62 -8 5 -9 2 -5 -10 4 -10 7 -20 7 -22 0 -3 5 -2 11 2 7
4 9 0 5 -14 -4 -11 -2 -23 4 -27 6 -4 10 6 10 24 0 23 5 31 18 31 10 0 13 -3
6 -8 -17 -11 -23 -59 -12 -103 10 -38 28 -54 28 -24 0 8 -4 15 -10 15 -5 0
-10 4 -10 10 0 5 3 9 8 9 20 -3 24 2 8 14 -13 9 -16 20 -11 40 4 15 10 27 14
27 14 0 12 97 -1 107 -16 12 -69 23 -63 13 3 -4 -5 -10 -17 -13 -15 -4 -18 -3
-10 5 9 9 4 15 -18 24 -17 7 -30 20 -30 29 0 8 -4 15 -10 15 -5 0 -9 17 -8 38
1 36 1 36 5 5 2 -18 8 -33 14 -33 5 0 9 -9 9 -20 0 -11 5 -20 11 -20 7 0 8 7
4 18 -14 36 -25 126 -15 136 5 5 7 0 4 -15 -5 -24 -5 -24 10 -4 9 11 24 26 34
34 15 12 15 13 -6 8 -13 -3 -21 -3 -18 1 4 3 40 6 80 7 41 0 70 -3 64 -6 -7
-4 -6 -9 2 -14 6 -4 18 1 26 11 14 18 14 17 4 -4 -6 -12 -8 -27 -4 -33 4 -7
12 1 20 19 11 27 17 30 46 27 18 -2 52 -4 75 -4 35 -1 41 -4 36 -18 -4 -11 -3
-14 5 -9 8 5 10 2 6 -8 -3 -9 -2 -16 4 -16 12 0 10 -17 -6 -46 -6 -12 -8 -24
-4 -28 3 -4 1 -11 -6 -15 -8 -5 -1 -8 18 -8 l30 0 0 76 0 76 67 -3 c63 -3 67
-2 48 12 -18 14 -18 15 -2 16 9 0 17 5 17 10 0 6 5 10 11 10 6 0 10 -10 9 -22
-1 -13 -2 -29 -1 -35 1 -18 41 23 41 42 0 8 4 15 9 15 21 0 61 -20 61 -30 0
-6 -4 -9 -8 -6 -4 2 -14 0 -22 -6 -13 -8 -12 -9 2 -5 9 3 32 -3 52 -13 20 -10
36 -14 36 -9 0 5 -10 13 -22 18 -16 6 -4 8 40 7 34 0 62 -4 62 -8 0 -5 -4 -8
-9 -8 -5 0 -9 -31 -10 -70 0 -39 4 -70 9 -70 14 0 12 -28 -2 -32 -15 -5 -19
-49 -6 -65 6 -7 21 -13 34 -13 13 0 24 6 24 13 1 7 6 4 15 -7 7 -10 18 -15 23
-12 12 7 23 46 13 46 -4 0 -7 16 -8 35 -1 19 2 33 6 31 4 -3 13 0 21 6 12 8
12 9 -2 4 -10 -3 -18 -1 -18 4 0 5 19 8 42 8 l42 0 -27 -15 c-27 -14 -36 -33
-16 -33 14 0 59 -47 59 -61 0 -5 -5 -18 -12 -28 -9 -16 -8 -27 5 -58 10 -21
15 -49 13 -61 -4 -18 -2 -22 10 -18 9 3 18 6 20 6 2 0 4 4 4 10 0 5 -8 7 -17
4 -14 -5 -15 -4 -4 4 11 8 11 14 0 33 -12 23 -11 23 6 9 17 -14 18 -14 6 9 -7
13 -11 36 -9 52 3 18 1 26 -6 22 -6 -4 -5 0 1 9 7 8 9 19 5 23 -4 5 -1 5 6 1
6 -4 12 -16 12 -26 0 -10 5 -22 12 -26 7 -5 9 -1 6 13 -3 12 -2 27 3 34 6 10
9 7 9 -11 0 -19 5 -26 20 -26 13 0 19 5 15 14 -3 7 -5 17 -5 20 0 4 -5 0 -10
-8 -8 -13 -10 -13 -10 2 0 31 36 17 38 -15 2 -23 -1 -28 -13 -23 -9 3 -23 -1
-32 -9 -14 -14 -14 -20 2 -60 9 -25 20 -47 25 -50 12 -7 61 122 58 155 -2 27
-6 30 -35 30 -17 0 -44 5 -58 12 -22 10 -28 9 -36 -3 -5 -8 -9 -9 -9 -3 0 5 5
15 11 21 13 13 -9 53 -28 53 -7 0 -13 4 -13 10 0 5 7 7 15 4 8 -4 15 -1 15 4
0 6 -8 13 -17 15 -16 4 -16 5 -1 6 16 1 43 55 39 79 -2 10 4 12 18 7 12 -3 21
-3 21 2 0 4 22 8 49 8 27 0 47 -3 45 -6 -2 -4 3 -9 11 -13 28 -10 54 -66 48
-105 -4 -29 -2 -33 7 -21 10 13 11 12 6 -4 -4 -11 -2 -22 4 -26 7 -4 7 -14 1
-31 -9 -23 -10 -23 -10 -2 -1 12 -6 25 -11 28 -13 8 -40 -12 -40 -29 0 -6 5
-3 11 7 14 24 33 23 20 -1 -7 -13 -6 -23 2 -32 10 -10 8 -10 -11 -1 -13 7 -28
10 -35 7 -9 -3 -8 -5 1 -5 7 -1 20 -8 28 -16 11 -11 37 -15 90 -15 78 0 80 -1
64 -50 -5 -17 -8 -19 -9 -7 -1 11 -9 17 -23 17 -13 0 -34 3 -47 7 -20 5 -23 3
-18 -10 4 -10 2 -17 -2 -17 -15 0 -6 -34 10 -38 11 -3 11 -1 -1 7 -8 6 -10 11
-4 11 5 0 15 -5 22 -12 9 -9 15 -9 24 0 7 7 17 12 22 12 6 0 4 -5 -4 -10 -9
-6 -10 -10 -3 -10 6 0 15 5 18 10 10 16 30 -11 33 -42 1 -15 -4 -28 -13 -32
-8 -3 -15 -1 -15 3 0 5 5 11 12 13 8 3 8 9 0 24 -11 18 -13 17 -16 -8 0 -6 -9
-12 -19 -14 -9 -1 -15 2 -11 7 3 5 -11 9 -30 9 -31 0 -36 -3 -36 -22 0 -21 5
-23 66 -24 44 -1 69 -6 75 -15 4 -8 6 6 4 34 -4 46 11 68 17 25 2 -12 10 -24
18 -26 13 -5 13 -3 2 11 -8 9 -12 22 -10 29 3 7 -1 19 -9 26 -15 16 -17 58 -3
67 6 3 10 12 10 18 0 7 -9 1 -20 -13 -18 -23 -20 -23 -19 -5 0 26 21 53 37 48
6 -3 12 0 12 6 0 14 -27 14 -35 1 -3 -5 -12 -10 -18 -9 -9 0 -9 2 1 6 27 11 9
21 -35 21 -79 -1 -79 -2 -73 115 4 82 8 102 20 102 12 0 16 -18 18 -92 1 -51
7 -93 12 -93 6 0 10 5 10 12 0 9 3 9 12 0 15 -15 48 -16 48 0 0 6 9 2 20 -10
11 -12 20 -24 20 -28 0 -11 42 -44 56 -44 8 0 11 12 7 43 -8 56 -16 64 -11 10
4 -49 -3 -54 -25 -19 -12 17 -16 44 -14 94 1 39 -1 68 -4 66 -4 -2 -10 3 -13
12 -8 22 -8 26 4 19 6 -3 10 1 10 9 0 8 -8 17 -17 19 -10 3 -2 4 17 2 23 -1
36 -8 38 -18 2 -9 9 -14 18 -10 8 3 14 1 14 -5 0 -5 -7 -12 -15 -16 -8 -3 -15
-15 -15 -26 0 -17 6 -20 50 -20 l50 0 0 44 c0 34 -4 46 -17 49 -17 4 -17 5 0
6 11 1 17 9 17 26 0 23 4 25 40 25 30 0 40 -4 40 -16 0 -27 -23 -94 -32 -94
-11 0 -10 17 2 25 18 11 10 31 -12 32 -13 0 -18 -1 -13 -3 6 -2 9 -45 8 -103
-2 -84 0 -99 13 -94 26 10 53 81 58 156 2 21 7 41 11 45 4 4 4 -8 0 -25 -8
-41 3 -43 16 -3 9 25 14 28 30 20 14 -8 19 -7 19 1 0 8 4 8 15 -1 12 -10 15
-10 15 0 0 8 3 11 6 7 3 -3 3 -15 -1 -27 -5 -17 -9 -19 -21 -9 -12 10 -13 8
-6 -12 12 -30 42 -31 53 -1 5 13 5 22 -1 22 -6 0 -10 7 -10 16 0 8 4 13 9 10
5 -4 7 3 4 14 -3 11 0 20 5 20 15 0 35 -37 23 -42 -14 -5 -25 -58 -12 -58 6 0
11 8 11 19 0 26 20 40 63 43 37 2 37 3 37 45 0 33 4 43 16 43 13 0 15 -9 13
-42 l-4 -43 67 3 c58 3 71 7 87 28 10 13 27 24 37 24 26 1 54 24 54 44 0 9 4
16 9 16 5 0 19 15 30 34 16 25 21 50 21 104 0 61 -4 75 -24 99 -24 28 -25 28
-141 27 -103 0 -119 -3 -143 -22 -15 -12 -37 -27 -49 -32 -13 -5 -23 -14 -23
-20 0 -5 -9 -10 -21 -10 -29 0 -59 -18 -59 -35 0 -9 -10 -15 -24 -15 -37 0
-56 -10 -56 -30 0 -16 -12 -20 -80 -26 -44 -3 -80 -11 -80 -15 0 -5 -9 -9 -20
-9 -13 0 -24 -10 -30 -25 -5 -14 -14 -25 -20 -25 -5 0 -10 -7 -10 -15 0 -11
-12 -15 -50 -15 -28 0 -67 -7 -87 -15 -19 -8 -51 -15 -69 -15 -19 0 -34 -4
-34 -10 0 -6 -62 -10 -165 -10 -147 0 -168 -2 -197 -20 l-33 -20 63 4 c63 4
76 -1 67 -27 -5 -10 -20 -13 -60 -11 l-55 3 0 -30 c0 -30 1 -31 43 -26 23 2
53 7 67 11 24 6 24 6 3 -3 -13 -6 -23 -17 -23 -26 0 -11 -11 -15 -46 -15 l-46
0 4 -60 c2 -33 3 -60 0 -60 -2 0 -11 7 -19 16 -10 9 -18 11 -22 6 -3 -6 -5 38
-4 96 2 71 0 100 -6 87 -8 -17 -10 -15 -10 13 -1 26 3 32 17 30 12 -2 18 5 20
25 2 16 10 31 18 34 8 3 14 13 14 23 0 10 10 27 23 37 12 10 28 29 35 41 14
26 17 162 2 162 -5 0 -10 7 -10 15 0 11 -11 15 -40 15 -29 0 -40 4 -40 15 0
12 -16 15 -80 15 -64 0 -80 -3 -80 -15 0 -11 -11 -15 -36 -15 -27 0 -37 -5
-41 -19 -3 -11 -17 -21 -33 -24 -15 -4 -35 -13 -43 -22 -9 -8 -20 -15 -24 -15
-17 0 -94 -41 -113 -60 -10 -10 -39 -22 -64 -25 -25 -4 -46 -11 -46 -16 0 -5
-15 -9 -32 -9 -26 0 -41 -9 -68 -40 -19 -22 -41 -40 -47 -40 -7 0 -13 -4 -13
-10 0 -5 -18 -10 -40 -10 -54 0 -56 -27 -2 -33 20 -2 10 -3 -22 -1 -32 2 -157
4 -277 4 -188 0 -219 2 -219 15 0 8 -5 15 -10 15 -12 0 9 41 28 53 27 17 42
67 42 137 0 66 -2 74 -29 101 -28 27 -34 29 -108 28 -43 -1 -97 -5 -119 -8z
m2516 -307 c0 -17 -22 -14 -28 4 -2 7 3 12 12 12 9 0 16 -7 16 -16z m-2882
-48 c-4 -32 -2 -33 20 -25 13 5 33 9 46 9 21 0 22 -5 24 -72 1 -50 -2 -67 -8
-53 -6 15 -9 5 -9 -36 -1 -40 -6 -61 -18 -70 -15 -13 -16 -12 -8 11 4 14 9 44
10 66 1 23 6 47 10 53 4 7 4 15 0 19 -3 3 -10 0 -15 -8 -9 -13 -10 -13 -11 0
0 8 -9 -14 -18 -50 -15 -56 -21 -66 -46 -75 -17 -5 -33 -14 -37 -20 -5 -6 -8
-5 -8 4 0 9 -8 11 -25 7 -20 -5 -24 -3 -19 11 2 10 -1 8 -7 -4 -7 -13 -16 -23
-21 -23 -5 0 -5 8 1 18 11 20 12 72 1 72 -4 0 -10 -27 -14 -60 l-7 -60 -37 -1
-37 -2 40 -7 40 -8 -40 2 c-36 1 -40 4 -43 28 -2 20 -7 25 -19 21 -10 -4 -14
-2 -9 5 3 6 2 14 -4 17 -8 5 -7 11 1 21 9 10 9 14 0 14 -6 0 -15 -8 -18 -17
-7 -17 -33 -49 -33 -40 0 3 -7 21 -15 41 -12 27 -12 35 -3 34 7 -2 17 -7 21
-13 5 -5 5 6 2 25 -4 24 -3 31 4 21 10 -15 19 1 51 91 16 43 33 41 56 -8 9
-19 19 -32 22 -30 3 3 -1 12 -8 21 -15 18 -6 63 18 87 13 13 35 17 96 17 l78
1 -4 -34z m125 -78 c9 -6 9 -10 0 -16 -6 -4 -13 -25 -16 -47 -2 -22 -4 -2 -4
45 0 47 2 72 4 55 3 -16 10 -33 16 -37z m8 19 c-8 -8 -11 -5 -11 9 0 27 14 41
18 19 2 -9 -1 -22 -7 -28z m2103 23 c-4 -8 -6 -26 -5 -39 0 -14 0 -23 -2 -20
-2 2 -11 18 -22 34 -15 25 -16 28 -2 16 15 -11 17 -11 17 2 0 8 -6 17 -12 20
-7 3 -3 4 10 4 16 -1 21 -6 16 -17z m-1344 -35 c0 -5 -5 -3 -10 5 -5 8 -10 20
-10 25 0 6 5 3 10 -5 5 -8 10 -19 10 -25z m1120 15 c0 -5 -8 -10 -17 -10 -15
0 -16 2 -3 10 19 12 20 12 20 0z m777 -12 c-3 -8 -6 -5 -6 6 -1 11 2 17 5 13
3 -3 4 -12 1 -19z m-480 -80 c-2 -18 -4 -4 -4 32 0 36 2 50 4 33 2 -18 2 -48
0 -65z m-308 66 c2 -2 -7 -4 -22 -4 -14 0 -29 -4 -32 -10 -9 -15 -45 -12 -45
4 0 8 6 16 13 19 12 4 78 -3 86 -9z m-2285 -18 c-3 -9 -10 -16 -15 -16 -5 0
-4 9 3 20 14 22 21 20 12 -4z m2173 2 c-3 -8 -6 -5 -6 6 -1 11 2 17 5 13 3 -3
4 -12 1 -19z m-2243 -83 c-28 -38 -52 -48 -34 -15 7 14 7 20 0 20 -5 0 -10 7
-10 15 0 11 11 15 36 15 l35 0 -27 -35z m399 -6 c-8 -29 -13 -23 -13 14 0 22
3 28 9 18 5 -7 6 -22 4 -32z m1739 -71 c-8 -8 -9 -4 -5 13 4 13 8 18 11 10 2
-7 -1 -18 -6 -23z m-1248 -3 c11 -8 15 -15 10 -15 -6 0 -19 7 -30 15 -10 8
-14 14 -9 14 6 0 19 -6 29 -14z m523 -32 c-3 -10 -5 -4 -5 12 0 17 2 24 5 18
2 -7 2 -21 0 -30z m43 28 c0 -6 -4 -13 -10 -16 -5 -3 -10 1 -10 9 0 9 5 16 10
16 6 0 10 -4 10 -9z m1030 -21 c0 -10 -4 -22 -10 -25 -6 -4 -10 7 -10 25 0 18
4 29 10 25 6 -3 10 -15 10 -25z m158 13 c-10 -2 -28 -2 -40 0 -13 2 -5 4 17 4
22 1 32 -1 23 -4z m-301 -60 c-3 -10 -5 -2 -5 17 0 19 2 27 5 18 2 -10 2 -26
0 -35z m123 -12 c0 -9 -3 -12 -8 -6 -12 16 -32 16 -32 0 0 -8 5 -15 10 -15 6
0 10 -4 10 -10 0 -16 -17 -11 -24 6 -4 9 -4 25 -1 34 7 22 45 15 45 -9z m203
-8 c-7 -2 -21 -2 -30 0 -10 3 -4 5 12 5 17 0 24 -2 18 -5z m54 -15 c-3 -8 -6
-5 -6 6 -1 11 2 17 5 13 3 -3 4 -12 1 -19z m-1480 -20 c-3 -8 -6 -5 -6 6 -1
11 2 17 5 13 3 -3 4 -12 1 -19z m25 -34 c-5 -9 -8 -1 -9 23 -1 33 0 35 8 15 5
-13 5 -30 1 -38z m-265 -36 c-3 -8 -6 -5 -6 6 -1 11 2 17 5 13 3 -3 4 -12 1
-19z m253 2 c0 -5 -5 -10 -11 -10 -5 0 -7 5 -4 10 3 6 8 10 11 10 2 0 4 -4 4
-10z m-560 -100 c0 -5 -4 -10 -10 -10 -5 0 -10 5 -10 10 0 6 5 10 10 10 6 0
10 -4 10 -10z m-500 -270 c0 -5 -7 -7 -15 -4 -8 4 -15 8 -15 10 0 2 7 4 15 4
8 0 15 -4 15 -10z m160 -98 c0 -8 -1 -13 -3 -11 -1 2 -9 12 -16 22 -12 15 -12
17 3 11 9 -3 16 -13 16 -22z"/>
<path d="M2681 2823 c0 -6 -4 -20 -7 -30 -5 -14 -4 -15 5 -7 7 7 11 20 8 30
-3 11 -5 14 -6 7z"/>
<path d="M2748 2823 c7 -3 16 -2 19 1 4 3 -2 6 -13 5 -11 0 -14 -3 -6 -6z"/>
<path d="M2830 2795 c0 -17 5 -25 13 -22 6 2 12 12 12 22 0 10 -6 20 -12 23
-8 2 -13 -6 -13 -23z"/>
<path d="M2621 2794 c0 -11 3 -14 6 -6 3 7 2 16 -1 19 -3 4 -6 -2 -5 -13z"/>
<path d="M2721 2776 c-14 -16 -2 -27 33 -32 12 -1 30 -6 40 -10 14 -5 17 -4
12 4 -4 7 -15 12 -24 13 -14 0 -14 2 3 10 16 7 13 8 -12 4 -32 -4 -46 8 -20
18 7 4 6 6 -4 6 -9 1 -22 -5 -28 -13z"/>
<path d="M2664 2756 c-4 -9 -13 -15 -20 -12 -19 7 -27 -10 -20 -40 6 -21 9
-24 21 -14 12 10 18 10 30 0 8 -6 20 -10 27 -7 12 4 -10 17 -54 31 -10 3 -18
11 -18 18 0 10 2 10 9 -1 6 -10 10 -10 16 -1 5 8 12 7 26 -6 23 -21 24 -16 4
22 -12 24 -15 25 -21 10z"/>
<path d="M2558 2744 c-3 -10 -9 -27 -13 -36 -5 -13 -2 -18 11 -18 13 0 15 3 7
8 -8 5 -9 13 -3 22 8 13 10 13 10 1 0 -8 2 -12 5 -9 3 3 2 16 -3 28 -8 22 -9
22 -14 4z"/>
<path d="M2748 2693 c7 -3 16 -2 19 1 4 3 -2 6 -13 5 -11 0 -14 -3 -6 -6z"/>
<path d="M2765 2670 c3 -5 8 -10 11 -10 2 0 4 5 4 10 0 6 -5 10 -11 10 -5 0
-7 -4 -4 -10z"/>
<path d="M2580 2643 c8 -3 18 -11 22 -17 5 -7 8 -4 8 7 0 11 -7 17 -22 16 -16
0 -18 -2 -8 -6z"/>
<path d="M2748 2643 c7 -3 16 -2 19 1 4 3 -2 6 -13 5 -11 0 -14 -3 -6 -6z"/>
<path d="M2540 2621 c0 -4 11 -8 25 -9 14 -1 25 2 25 7 0 5 -11 9 -25 9 -14 0
-25 -3 -25 -7z"/>
<path d="M2610 2600 c0 -5 5 -10 10 -10 6 0 10 5 10 10 0 6 -4 10 -10 10 -5 0
-10 -4 -10 -10z"/>
<path d="M4720 2759 c0 -5 5 -7 10 -4 6 3 10 8 10 11 0 2 -4 4 -10 4 -5 0 -10
-5 -10 -11z"/>
<path d="M1801 3174 c-15 -19 -26 -24 -41 -19 -20 6 -21 5 -10 -15 6 -12 8
-34 5 -51 -5 -24 -4 -28 9 -23 9 3 16 1 16 -5 0 -6 7 -11 15 -11 8 0 15 5 15
10 0 6 7 10 15 10 11 0 15 -10 14 -37 -1 -24 -3 -29 -6 -15 -2 12 -9 22 -15
22 -6 0 -8 -9 -5 -20 3 -11 1 -23 -4 -26 -5 -3 -9 4 -9 15 0 11 -4 23 -10 26
-16 10 -12 -18 10 -63 12 -24 25 -40 30 -37 6 4 10 -3 10 -14 0 -11 5 -23 10
-26 6 -4 8 -10 6 -13 -2 -4 4 -25 14 -47 11 -22 19 -33 20 -24 0 9 7 20 16 23
11 4 14 13 10 29 -5 21 -2 22 39 19 36 -3 45 -1 45 12 0 9 8 16 20 16 11 0 23
8 27 18 3 9 12 24 20 33 10 12 13 43 11 120 l-3 103 -117 -2 c-72 -1 -118 2
-118 8 0 18 -18 10 -39 -16z m29 -200 c0 -8 -4 -12 -10 -9 -5 3 -10 10 -10 16
0 5 5 9 10 9 6 0 10 -7 10 -16z m70 -74 c0 -5 -2 -10 -4 -10 -3 0 -8 5 -11 10
-3 6 -1 10 4 10 6 0 11 -4 11 -10z m-13 -52 c-3 -8 -6 -5 -6 6 -1 11 2 17 5
13 3 -3 4 -12 1 -19z"/>
<path d="M1736 3115 c4 -8 8 -15 10 -15 2 0 4 7 4 15 0 8 -4 15 -10 15 -5 0
-7 -7 -4 -15z"/>
<path d="M6437 2850 c-29 -32 -37 -94 -14 -103 9 -4 9 -6 -1 -6 -8 -1 -16 8
-19 19 -4 16 -14 20 -44 20 -28 0 -39 -4 -39 -15 0 -12 -13 -15 -55 -15 l-55
0 0 -40 c0 -36 -2 -40 -25 -40 -25 0 -25 -1 -25 -80 0 -49 4 -80 10 -80 6 0
22 -12 35 -27 21 -24 26 -26 35 -13 9 11 10 7 5 -17 -4 -22 -3 -33 5 -33 6 0
9 4 6 9 -3 5 6 16 20 26 18 12 24 23 21 37 -4 13 -1 18 6 15 14 -5 69 63 73
90 6 42 15 61 29 67 13 4 14 2 5 -14 -14 -26 -12 -40 2 -16 6 11 12 35 14 54
1 19 8 40 14 46 9 8 10 4 5 -16 -4 -16 -4 -28 -1 -28 14 0 29 57 27 98 -3 39
9 56 24 32 10 -17 21 -11 33 15 15 32 15 48 2 40 -5 -3 -10 -15 -10 -26 0 -10
-4 -19 -9 -19 -4 0 -6 11 -3 25 2 14 0 25 -6 25 -6 0 -13 -10 -15 -22 l-4 -23
-2 23 c-1 30 -12 28 -44 -8z m-173 -346 c17 -7 22 -34 6 -34 -5 0 -10 6 -10
14 0 8 -6 17 -12 19 -7 3 -10 6 -6 6 3 1 13 -2 22 -5z"/>
<path d="M3095 2820 c4 -6 2 -16 -3 -23 -15 -18 -24 -57 -15 -57 13 0 45 69
38 81 -4 5 -11 9 -16 9 -6 0 -7 -5 -4 -10z"/>
<path d="M3063 2794 c-6 -13 -7 -24 -3 -24 9 0 25 39 18 45 -2 2 -8 -7 -15
-21z"/>
<path d="M3429 2793 c-1 -27 -1 -129 0 -147 1 -5 4 -6 8 -2 10 10 11 176 1
176 -4 0 -8 -12 -9 -27z"/>
<path d="M3989 2784 c-5 -15 -7 -34 -4 -44 3 -9 -1 -35 -9 -58 -13 -37 -13
-40 1 -35 13 5 15 2 9 -13 -6 -17 -5 -16 13 3 17 18 21 35 21 98 0 77 -12 97
-31 49z"/>
<path d="M4367 2803 c-4 -3 -7 -18 -8 -32 l-1 -26 -8 25 c-7 23 -8 23 -9 3 -1
-12 -7 -28 -14 -35 -12 -11 -12 -16 -1 -26 17 -15 27 -16 18 -1 -4 7 -1 10 7
7 8 -3 15 -11 17 -20 3 -15 -20 -16 -100 -2 -31 5 -37 3 -43 -16 -9 -29 -5
-32 58 -33 41 -2 53 1 46 10 -7 8 -3 11 15 9 18 -2 27 3 31 15 4 11 11 19 17
19 6 0 3 9 -7 20 -12 13 -16 30 -13 55 4 38 4 38 -5 28z m-71 -130 c-3 -4 -17
-8 -29 -10 -17 -2 -19 -1 -7 7 17 11 47 14 36 3z"/>
<path d="M5755 2780 c4 -36 -1 -37 -32 -8 -19 17 -27 19 -45 10 -13 -6 -17
-11 -10 -11 7 -1 10 -6 6 -13 -4 -6 -3 -8 4 -4 5 3 13 0 15 -6 4 -8 6 -7 6 4
1 9 -5 19 -11 22 -7 3 -4 4 7 3 12 -2 19 -10 18 -21 0 -11 4 -15 13 -12 8 3
14 0 14 -6 0 -7 4 -7 13 0 15 13 20 59 7 67 -5 3 -7 -7 -5 -25z"/>
<path d="M3732 2780 c0 -14 2 -19 5 -12 2 6 2 18 0 25 -3 6 -5 1 -5 -13z"/>
<path d="M4520 2796 c0 -2 7 -6 15 -10 8 -3 15 -1 15 4 0 6 -7 10 -15 10 -8 0
-15 -2 -15 -4z"/>
<path d="M3240 2760 c0 -23 5 -30 19 -30 25 0 32 11 24 39 -4 17 -8 19 -14 9
-7 -10 -9 -10 -9 0 0 6 -4 12 -10 12 -5 0 -10 -13 -10 -30z m35 -10 c3 -5 1
-10 -4 -10 -6 0 -11 5 -11 10 0 6 2 10 4 10 3 0 8 -4 11 -10z"/>
<path d="M3290 2780 c0 -5 4 -10 9 -10 6 0 13 5 16 10 3 6 -1 10 -9 10 -9 0
-16 -4 -16 -10z"/>
<path d="M3858 2783 c7 -3 16 -2 19 1 4 3 -2 6 -13 5 -11 0 -14 -3 -6 -6z"/>
<path d="M4090 2782 c0 -7 -10 -12 -22 -12 -24 0 -19 -10 7 -14 9 -1 20 -9 25
-16 7 -12 10 -11 16 4 4 11 0 24 -10 34 -10 10 -16 12 -16 4z"/>
<path d="M4255 2768 c-4 -14 -8 -18 -12 -10 -2 6 -9 12 -15 12 -7 0 -7 -5 1
-13 6 -8 8 -16 6 -19 -3 -3 13 -4 35 -3 23 1 47 8 53 15 9 10 9 11 0 6 -6 -3
-14 -2 -18 4 -3 5 1 10 9 10 9 0 16 5 16 10 0 6 -15 10 -34 10 -26 0 -35 -5
-41 -22z"/>
<path d="M4430 2780 c19 -13 30 -13 30 0 0 6 -10 10 -22 10 -19 0 -20 -2 -8
-10z"/>
<path d="M4895 2780 c5 -9 2 -10 -12 -6 -27 9 -42 -12 -38 -54 4 -47 6 -49 16
-20 7 21 8 19 4 -12 -3 -34 -1 -39 21 -44 52 -13 109 50 85 93 -21 36 -27 42
-55 49 -22 5 -27 4 -21 -6z m41 -40 c-21 -23 -30 -61 -17 -70 7 -3 -1 -7 -16
-7 -27 0 -28 2 -27 49 1 43 0 46 -12 31 -12 -16 -13 -16 -14 -1 0 21 19 27 49
16 13 -5 26 -6 29 -3 3 3 0 5 -6 5 -7 0 -12 5 -12 10 0 6 8 5 20 -2 16 -10 17
-15 6 -28z"/>
<path d="M4495 2771 c-3 -6 -10 -9 -14 -7 -4 3 -8 -1 -8 -9 0 -8 2 -15 4 -15
9 0 35 31 30 36 -3 3 -8 0 -12 -5z"/>
<path d="M3894 2743 c-4 -15 -17 -35 -28 -45 -18 -15 -19 -19 -6 -28 11 -7 11
-10 2 -10 -7 0 -15 7 -18 15 -8 21 -26 19 -22 -2 4 -22 65 -35 89 -20 28 18
42 59 30 90 -13 35 -39 35 -47 0z m33 -55 c-3 -8 -6 -5 -6 6 -1 11 2 17 5 13
3 -3 4 -12 1 -19z"/>
<path d="M4531 2754 c0 -11 3 -14 6 -6 3 7 2 16 -1 19 -3 4 -6 -2 -5 -13z"/>
<path d="M4420 2752 c0 -4 9 -8 20 -9 11 -1 18 2 15 8 -7 11 -35 12 -35 1z"/>
<path d="M5506 2751 c-7 -11 3 -41 14 -41 4 0 5 11 2 25 -5 27 -8 30 -16 16z"/>
<path d="M5580 2744 l-25 -14 34 0 c26 0 32 -3 27 -16 -5 -12 -1 -14 16 -8 20
6 21 5 9 -10 -18 -22 -5 -34 15 -14 15 14 13 19 -16 47 -18 17 -33 31 -34 30
-1 -1 -12 -7 -26 -15z"/>
<path d="M4060 2733 c0 -7 7 -13 15 -13 8 0 15 6 15 13 0 8 -7 14 -15 14 -8 0
-15 -6 -15 -14z"/>
<path d="M1940 2711 c0 -5 5 -13 10 -16 6 -3 10 -2 10 4 0 5 -4 13 -10 16 -5
3 -10 2 -10 -4z"/>
<path d="M3104 2698 c-3 -13 -16 -42 -27 -66 -15 -32 -22 -40 -29 -30 -8 10
-9 10 -6 -1 8 -29 24 -20 41 21 14 31 21 38 27 27 6 -9 9 1 7 29 -1 48 -3 51
-13 20z"/>
<path d="M3330 2710 c0 -5 5 -10 10 -10 6 0 10 5 10 10 0 6 -4 10 -10 10 -5 0
-10 -4 -10 -10z"/>
<path d="M5570 2712 c0 -5 7 -9 15 -9 8 0 12 4 9 9 -3 4 -9 8 -15 8 -5 0 -9
-4 -9 -8z"/>
<path d="M2992 2676 c0 -19 -3 -43 -6 -54 -4 -11 -2 -23 4 -27 6 -4 10 7 10
27 l1 33 14 -30 c7 -16 14 -26 14 -22 1 10 -30 107 -34 107 -2 0 -3 -15 -3
-34z"/>
<path d="M3249 2698 c-5 -17 -4 -50 3 -54 4 -3 8 9 8 25 0 17 -2 31 -5 31 -3
0 -5 -1 -6 -2z"/>
<path d="M3296 2688 c5 -8 2 -9 -10 -5 -14 5 -17 2 -14 -15 2 -15 11 -23 31
-25 15 -2 27 1 27 7 0 5 -12 10 -27 10 -22 0 -25 2 -13 10 8 5 24 7 35 3 18
-5 18 -4 3 11 -19 18 -43 22 -32 4z"/>
<path d="M3591 2685 c1 -5 1 -26 0 -47 -1 -30 -4 -35 -20 -31 -23 6 -37 -13
-15 -21 9 -4 13 -2 8 5 -4 8 1 9 15 4 12 -4 21 -2 21 4 0 6 9 20 20 31 11 11
20 27 20 35 0 8 6 12 14 9 8 -3 23 -1 32 4 14 8 5 11 -39 13 -34 3 -56 0 -56
-6z"/>
<path d="M5283 2678 c17 -15 19 -25 13 -72 -4 -41 -2 -57 9 -66 14 -12 35 -6
35 10 0 5 -8 17 -17 26 -17 17 -17 18 1 11 10 -4 25 -2 32 4 11 9 14 8 14 -5
0 -10 -5 -14 -11 -10 -7 4 -10 -1 -7 -12 2 -14 14 -20 46 -22 23 -2 42 1 42 6
0 5 12 7 28 5 33 -4 47 4 56 35 6 16 3 22 -8 22 -9 0 -16 9 -16 20 0 13 -7 20
-20 20 -12 0 -20 -7 -20 -16 0 -14 3 -14 15 -4 12 10 15 10 15 -3 0 -8 -13
-17 -30 -20 -21 -5 -28 -11 -24 -22 3 -8 1 -15 -5 -15 -6 0 -11 12 -11 26 0
15 -4 23 -11 19 -6 -4 -8 -13 -5 -21 3 -7 0 -16 -6 -20 -7 -4 -8 -3 -4 4 4 6
-2 17 -14 24 -15 10 -20 23 -20 55 l0 42 -49 -2 c-47 -2 -48 -2 -28 -19z m215
-85 c-10 -2 -26 -2 -35 0 -10 3 -2 5 17 5 19 0 27 -2 18 -5z m-178 -33 c0 -5
-4 -10 -10 -10 -5 0 -10 5 -10 10 0 6 5 10 10 10 6 0 10 -4 10 -10z"/>
<path d="M5498 2693 c7 -3 16 -2 19 1 4 3 -2 6 -13 5 -11 0 -14 -3 -6 -6z"/>
<path d="M1981 2674 c0 -11 3 -14 6 -6 3 7 2 16 -1 19 -3 4 -6 -2 -5 -13z"/>
<path d="M4394 2679 c-4 -8 -3 -9 4 -5 7 4 12 1 12 -8 0 -8 4 -17 9 -20 5 -4
7 3 4 14 -7 26 -19 34 -29 19z"/>
<path d="M5583 2679 c2 -8 10 -13 17 -11 8 2 11 -4 8 -16 -3 -11 -2 -25 2 -32
13 -21 19 15 7 40 -13 26 -43 42 -34 19z"/>
<path d="M5708 2677 c-7 -8 -20 -16 -28 -19 -12 -4 -12 -5 1 -10 8 -3 22 5 32
18 19 26 17 32 -5 11z"/>
<path d="M4084 2668 c3 -10 9 -26 12 -35 5 -14 4 -14 -9 2 -8 11 -19 16 -24
12 -4 -5 0 -14 10 -21 21 -16 21 -22 0 -30 -9 -4 -20 -1 -25 6 -6 10 -8 10 -8
0 0 -7 15 -21 33 -32 38 -24 54 -26 33 -5 -8 8 -19 15 -25 15 -6 0 -3 8 7 18
18 19 37 19 26 0 -4 -7 -2 -8 4 -4 12 7 0 38 -29 76 -9 13 -10 12 -5 -2z"/>
<path d="M4433 2667 c-3 -6 -1 -7 5 -3 5 3 12 1 14 -6 3 -8 6 -7 10 3 7 17
-19 22 -29 6z"/>
<path d="M4145 2660 c-3 -5 3 -10 14 -10 24 0 28 -15 7 -23 -8 -3 -14 -15 -13
-26 0 -11 5 -17 9 -15 5 3 6 9 3 14 -3 5 -1 11 5 15 5 3 10 2 10 -3 0 -6 8
-13 18 -17 14 -5 15 -4 5 6 -7 7 -13 23 -13 35 0 12 -7 25 -16 28 -21 8 -22 8
-29 -4z"/>
<path d="M5794 2662 c5 -8 -1 -12 -16 -13 -18 -1 -19 -2 -4 -6 23 -6 43 12 25
22 -8 5 -10 4 -5 -3z"/>
<path d="M3530 2636 c0 -9 5 -16 10 -16 6 0 10 4 10 9 0 6 -4 13 -10 16 -5 3
-10 -1 -10 -9z"/>
<path d="M4353 2635 c-9 -9 -9 -16 -2 -20 6 -5 6 -12 -3 -23 -8 -10 -9 -13 -1
-9 6 4 18 0 27 -8 9 -9 17 -11 21 -5 3 5 1 10 -5 10 -6 0 -8 4 -5 10 3 5 0 7
-7 5 -9 -4 -14 2 -15 15 -1 11 2 18 7 15 6 -3 7 1 4 9 -7 19 -6 19 -21 1z"/>
<path d="M5510 2638 c0 -20 26 -24 33 -5 2 7 11 -1 20 -18 19 -35 23 -28 5 10
-12 26 -38 35 -38 13 0 -9 -4 -8 -10 2 -8 13 -10 12 -10 -2z"/>
<path d="M4542 2620 c0 -14 2 -19 5 -12 2 6 2 18 0 25 -3 6 -5 1 -5 -13z"/>
<path d="M4690 2633 c0 -4 5 -15 10 -23 8 -13 10 -13 10 2 0 9 -4 20 -10 23
-5 3 -10 3 -10 -2z"/>
<path d="M2011 2613 c7 -12 15 -20 18 -17 3 2 -3 12 -13 22 -17 16 -18 16 -5
-5z"/>
<path d="M4494 2611 c0 -11 4 -17 8 -15 4 3 8 12 8 20 0 8 -4 14 -8 14 -4 0
-8 -9 -8 -19z"/>
<path d="M2941 2604 c0 -11 3 -14 6 -6 3 7 2 16 -1 19 -3 4 -6 -2 -5 -13z"/>
<path d="M3910 2610 c0 -5 5 -10 11 -10 5 0 7 5 4 10 -3 6 -8 10 -11 10 -2 0
-4 -4 -4 -10z"/>
<path d="M4016 2605 c4 -8 8 -15 10 -15 2 0 4 7 4 15 0 8 -4 15 -10 15 -5 0
-7 -7 -4 -15z"/>
<path d="M3230 2602 c0 -14 28 -23 36 -11 3 6 3 13 0 16 -3 4 -6 1 -6 -7 0
-10 -3 -10 -15 0 -9 7 -15 8 -15 2z"/>
<path d="M3462 2579 c-2 -19 2 -28 8 -24 5 3 10 14 11 23 0 9 8 0 17 -20 9
-21 20 -38 24 -38 13 0 9 18 -9 35 -16 16 -16 18 0 27 27 15 20 28 -16 28 -29
0 -33 -3 -35 -31z"/>
<path d="M3939 2589 c-18 -18 -19 -22 -6 -32 8 -7 17 -24 21 -39 7 -29 26 -39
26 -13 0 8 5 15 10 15 6 0 10 6 10 14 0 8 7 16 15 20 21 8 19 27 -2 19 -10 -3
-15 -3 -11 2 7 8 -19 34 -34 35 -5 0 -17 -9 -29 -21z m51 -9 c0 -14 -33 -21
-44 -9 -8 9 -6 10 8 5 13 -4 17 -2 13 8 -4 10 -1 13 9 9 7 -3 14 -9 14 -13z
m-23 -62 c-3 -7 -5 -2 -5 12 0 14 2 19 5 13 2 -7 2 -19 0 -25z"/>
<path d="M4320 2599 c0 -5 5 -7 10 -4 6 3 10 8 10 11 0 2 -4 4 -10 4 -5 0 -10
-5 -10 -11z"/>
<path d="M4408 2603 c7 -3 16 -2 19 1 4 3 -2 6 -13 5 -11 0 -14 -3 -6 -6z"/>
<path d="M4446 2603 c-12 -12 -5 -22 14 -20 11 1 20 4 20 8 0 10 -27 19 -34
12z"/>
<path d="M5540 2600 c0 -5 5 -10 11 -10 5 0 7 5 4 10 -3 6 -8 10 -11 10 -2 0
-4 -4 -4 -10z"/>
<path d="M5657 2598 c-7 -5 0 -6 17 -4 16 3 31 7 33 10 8 8 -37 2 -50 -6z"/>
<path d="M5761 2603 c-1 -6 3 -14 7 -17 12 -7 38 12 29 21 -5 4 -12 1 -16 -6
-7 -11 -10 -11 -14 0 -3 9 -6 10 -6 2z"/>
<path d="M3080 2589 c0 -5 5 -7 10 -4 6 3 10 8 10 11 0 2 -4 4 -10 4 -5 0 -10
-5 -10 -11z"/>
<path d="M4690 2576 c0 -9 7 -16 16 -16 9 0 14 5 12 12 -6 18 -28 21 -28 4z"/>
<path d="M4745 2579 c-11 -17 1 -21 15 -4 8 9 8 15 2 15 -6 0 -14 -5 -17 -11z"/>
<path d="M5825 2579 c-4 -6 -5 -12 -2 -15 2 -3 7 2 10 11 7 17 1 20 -8 4z"/>
<path d="M3270 2576 c0 -3 9 -10 20 -16 11 -6 20 -8 20 -6 0 3 -9 10 -20 16
-11 6 -20 8 -20 6z"/>
<path d="M5774 2566 c-10 -8 -16 -18 -11 -22 4 -4 7 -2 7 4 0 7 9 12 20 12 11
0 20 5 20 10 0 14 -13 12 -36 -4z"/>
<path d="M4142 2545 c-14 -31 -15 -38 -3 -31 5 4 11 1 13 -5 2 -7 4 4 4 25 0
20 -1 36 -1 36 -1 0 -7 -11 -13 -25z"/>
<path d="M4430 2561 c0 -5 9 -7 20 -4 11 3 20 7 20 9 0 2 -9 4 -20 4 -11 0
-20 -4 -20 -9z"/>
<path d="M5218 2563 c7 -3 16 -2 19 1 4 3 -2 6 -13 5 -11 0 -14 -3 -6 -6z"/>
<path d="M4257 2547 c3 -5 0 -13 -7 -17 -9 -5 -9 -9 -1 -14 6 -4 11 -3 11 3 0
5 7 16 15 25 14 13 13 15 -4 13 -11 0 -17 -5 -14 -10z"/>
<path d="M4599 2470 c-1 -47 -1 -94 -1 -105 2 -15 0 -17 -7 -6 -6 9 -11 10
-15 2 -4 -6 -31 -11 -59 -11 -46 0 -54 3 -69 28 -12 19 -18 22 -18 10 0 -9 5
-20 11 -24 8 -4 7 -9 -2 -15 -19 -12 -29 -11 -29 2 0 5 5 7 10 4 6 -3 10 -2
10 4 0 5 -4 12 -9 15 -5 3 -7 15 -4 25 3 10 0 22 -6 25 -7 5 -8 1 -4 -10 5
-12 3 -15 -6 -9 -10 6 -11 3 -2 -13 13 -25 14 -35 2 -28 -5 4 -7 -3 -4 -14 5
-17 0 -20 -30 -20 -30 0 -35 -4 -40 -30 -5 -20 -12 -30 -24 -30 -17 1 -17 1 0
14 9 7 17 18 17 25 0 16 -30 13 -36 -4 -4 -8 -15 -15 -25 -15 -10 0 -19 -4
-19 -10 0 -5 -5 -10 -11 -10 -6 0 -20 -11 -31 -25 -15 -19 -29 -25 -61 -26
-81 -1 -132 -13 -135 -31 -2 -10 -17 -31 -33 -48 -26 -25 -38 -30 -80 -30 -27
0 -49 -4 -49 -10 0 -14 -77 -85 -116 -106 -19 -10 -34 -24 -34 -31 0 -9 -16
-13 -49 -13 -29 0 -53 -6 -60 -14 -6 -8 -14 -60 -18 -115 -6 -99 -5 -102 15
-108 16 -4 22 -13 22 -32 0 -15 5 -32 12 -39 14 -14 228 -17 228 -3 0 5 14 23
31 40 22 22 40 31 64 31 46 0 65 9 65 30 0 14 9 20 38 22 32 3 37 7 40 31 3
24 7 27 43 27 21 0 39 5 39 10 0 6 10 10 23 10 12 0 50 18 85 40 42 27 74 40
97 40 24 0 35 5 35 15 0 11 11 15 40 15 22 0 40 4 40 10 0 13 90 99 123 116
15 8 27 19 27 24 0 6 8 10 18 10 25 1 82 84 90 132 6 33 12 43 31 48 34 8 37
28 7 40 -14 5 -26 14 -26 20 0 6 -4 9 -9 6 -5 -4 -7 4 -5 16 2 13 2 17 -2 11
-3 -7 -10 -13 -15 -13 -6 0 -7 5 -4 10 3 6 -1 10 -9 10 -9 0 -16 -6 -16 -12 0
-10 -3 -9 -9 1 -6 9 -11 10 -15 2 -4 -6 -4 -11 1 -11 13 0 -21 -20 -35 -20 -9
0 -10 8 -6 28 4 15 10 29 13 32 16 14 28 72 21 102 -4 18 -8 27 -9 20 -1 -7
-5 -11 -10 -7 -5 3 -13 0 -17 -6 -4 -7 -3 -9 4 -5 6 3 14 1 18 -5 4 -8 3 -9
-4 -5 -7 4 -12 0 -13 -11 -1 -10 -7 0 -14 22 l-13 40 -3 -85z"/>
<path d="M4989 2528 c0 -20 -1 -20 -7 -5 -6 15 -9 13 -19 -13 -6 -16 -7 -28
-2 -24 5 3 9 1 9 -5 0 -5 -7 -14 -16 -19 -9 -5 -24 -32 -34 -60 l-18 -52 39 3
c37 2 39 4 40 37 l1 35 8 -30 c5 -21 8 -2 9 63 0 50 -1 92 -4 92 -3 0 -5 -10
-6 -22z m-7 -86 c-7 -2 -12 -11 -12 -20 0 -15 -2 -15 -10 -2 -9 13 -10 13 -10
0 0 -9 5 -21 12 -28 6 -6 8 -15 4 -19 -4 -4 -11 -1 -15 6 -7 11 -11 10 -21 -5
-11 -18 -11 -18 -6 -1 3 11 9 30 12 43 3 13 15 26 25 29 10 4 19 12 20 18 0 7
3 6 6 -2 3 -8 1 -17 -5 -19z"/>
<path d="M4430 2477 l5 -62 3 54 c2 30 0 58 -5 62 -4 4 -6 -20 -3 -54z"/>
<path d="M4670 2530 c0 -5 5 -10 10 -10 6 0 10 5 10 10 0 6 -4 10 -10 10 -5 0
-10 -4 -10 -10z"/>
<path d="M5340 2518 c0 -19 2 -20 10 -8 13 19 13 30 0 30 -5 0 -10 -10 -10
-22z"/>
<path d="M3330 2515 c0 -8 2 -15 4 -15 2 0 6 7 10 15 3 8 1 15 -4 15 -6 0 -10
-7 -10 -15z"/>
<path d="M5255 2520 c5 -9 2 -10 -15 -5 -18 6 -21 3 -18 -12 2 -11 20 -24 46
-33 39 -13 43 -13 59 4 10 10 12 16 6 12 -8 -5 -13 -1 -13 11 0 15 -2 15 -9 3
-6 -8 -7 -18 -5 -22 3 -4 0 -8 -5 -8 -6 0 -11 7 -11 15 0 8 -7 15 -16 15 -8 0
-13 4 -9 9 3 5 0 13 -6 17 -8 5 -9 3 -4 -6z m21 -38 c-7 -7 -46 9 -46 18 0 5
11 4 25 -2 14 -6 23 -13 21 -16z"/>
<path d="M5810 2526 c0 -2 7 -7 16 -10 8 -3 12 -2 9 4 -6 10 -25 14 -25 6z"/>
<path d="M3246 2508 c3 -5 10 -6 15 -3 13 9 11 12 -6 12 -8 0 -12 -4 -9 -9z"/>
<path d="M3127 2504 c-3 -4 -1 -16 5 -28 6 -11 19 -46 28 -76 l17 -55 7 33 c8
33 32 43 42 17 8 -20 63 -20 70 0 7 16 -12 45 -29 45 -5 0 -3 -8 6 -18 20 -21
22 -32 6 -32 -5 0 -8 4 -5 9 3 5 -1 12 -10 15 -12 4 -15 2 -10 -9 3 -8 1 -15
-4 -15 -9 0 -14 21 -11 47 1 6 -7 14 -17 17 -10 4 -23 18 -30 34 -10 25 -11
25 -6 2 3 -14 12 -30 20 -36 16 -13 19 -28 4 -19 -5 3 -10 2 -10 -4 0 -5 -9
-9 -20 -8 -14 1 -22 11 -26 34 -3 18 -10 33 -16 33 -5 0 -6 5 -3 10 7 11 2 13
-8 4z"/>
<path d="M4337 2499 c7 -7 15 -10 18 -7 3 3 -2 9 -12 12 -14 6 -15 5 -6 -5z"/>
<path d="M4090 2490 c0 -5 -7 -7 -15 -4 -8 4 -15 2 -15 -4 0 -14 33 -8 38 6 2
7 1 12 -2 12 -3 0 -6 -4 -6 -10z"/>
<path d="M4379 2492 c12 -8 11 -11 -3 -15 -15 -4 -15 -5 1 -3 19 1 21 19 1 24
-10 3 -10 1 1 -6z"/>
<path d="M3778 2465 c-13 -28 -12 -30 19 -39 18 -6 21 -4 16 14 -5 17 -8 19
-15 8 -7 -9 -8 -4 -4 15 8 34 -1 35 -16 2z"/>
<path d="M4246 2475 c-3 -9 -6 -22 -5 -28 0 -7 5 -1 10 12 5 13 8 26 5 28 -2
2 -6 -3 -10 -12z"/>
<path d="M4703 2463 c-18 -38 -16 -43 12 -43 26 0 32 9 16 26 -5 5 -11 17 -13
26 -2 14 -6 12 -15 -9z"/>
<path d="M2100 2476 c0 -2 8 -10 18 -17 15 -13 16 -12 3 4 -13 16 -21 21 -21
13z"/>
<path d="M2978 2442 c-13 -33 -13 -40 -2 -35 15 6 28 45 22 64 -2 6 -11 -7
-20 -29z"/>
<path d="M3014 2463 c-16 -50 -27 -73 -35 -73 -5 0 -9 -9 -9 -20 0 -11 3 -20
8 -20 7 0 34 61 47 108 7 26 -3 30 -11 5z"/>
<path d="M3070 2461 c-13 -25 -13 -44 0 -36 6 4 8 10 5 15 -3 5 -1 11 5 15 5
3 10 -3 10 -14 0 -12 4 -21 9 -21 6 0 6 12 0 30 -13 35 -15 36 -29 11z"/>
<path d="M3160 2469 c0 -9 7 -22 15 -29 19 -16 19 0 0 26 -12 16 -14 16 -15 3z"/>
<path d="M4105 2470 c-3 -5 -2 -10 4 -10 5 0 13 5 16 10 3 6 2 10 -4 10 -5 0
-13 -4 -16 -10z"/>
<path d="M4760 2471 c0 -6 4 -13 10 -16 6 -3 7 1 4 9 -7 18 -14 21 -14 7z"/>
<path d="M4528 2445 c-6 -14 -16 -25 -21 -25 -5 0 -3 -7 4 -17 13 -15 12 -15
-8 -4 -13 7 -23 8 -23 2 0 -14 36 -24 59 -16 22 7 29 28 23 63 -6 29 -20 28
-34 -3z"/>
<path d="M5326 2454 c-11 -8 -16 -14 -10 -14 13 0 39 18 34 24 -3 2 -14 -2
-24 -10z"/>
<path d="M3613 2410 c-13 -27 -23 -54 -23 -60 0 -19 22 -10 28 12 5 21 6 21
13 2 5 -12 8 1 8 39 1 31 0 57 -1 57 -2 0 -13 -23 -25 -50z"/>
<path d="M3901 2444 c0 -11 3 -14 6 -6 3 7 2 16 -1 19 -3 4 -6 -2 -5 -13z"/>
<path d="M3500 2403 c0 -33 4 -53 11 -53 7 0 9 10 7 25 -3 14 -1 25 3 25 13 0
11 14 -6 36 -13 17 -14 15 -15 -33z"/>
<path d="M4296 2437 c3 -10 9 -15 12 -12 3 3 0 11 -7 18 -10 9 -11 8 -5 -6z"/>
<path d="M5215 2430 c3 -5 13 -10 21 -10 8 0 12 5 9 10 -3 6 -13 10 -21 10 -8
0 -12 -4 -9 -10z"/>
<path d="M2146 2418 c3 -5 10 -6 15 -3 13 9 11 12 -6 12 -8 0 -12 -4 -9 -9z"/>
<path d="M2179 2413 c-13 -16 -12 -17 4 -4 9 7 17 15 17 17 0 8 -8 3 -21 -13z"/>
<path d="M3990 2426 c0 -2 8 -10 18 -17 15 -13 16 -12 3 4 -13 16 -21 21 -21
13z"/>
<path d="M4045 2419 c-4 -6 -5 -12 -2 -15 2 -3 7 2 10 11 7 17 1 20 -8 4z"/>
<path d="M4250 2426 c0 -3 9 -10 20 -16 11 -6 20 -8 20 -6 0 3 -9 10 -20 16
-11 6 -20 8 -20 6z"/>
<path d="M4340 2420 c0 -5 5 -10 11 -10 5 0 7 5 4 10 -3 6 -8 10 -11 10 -2 0
-4 -4 -4 -10z"/>
<path d="M5783 2416 c-18 -8 -44 -26 -58 -40 -14 -14 -38 -29 -53 -32 -42 -10
-72 -32 -72 -54 0 -17 -7 -20 -40 -20 -36 0 -40 -2 -40 -25 0 -25 -1 -25 -80
-25 -63 0 -80 -3 -80 -14 0 -9 -12 -16 -27 -18 -22 -2 -30 -11 -39 -38 -11
-34 -13 -35 -70 -38 -77 -3 -104 -17 -104 -54 0 -18 -5 -28 -15 -28 -8 0 -34
-13 -57 -30 -22 -16 -52 -30 -65 -30 -12 0 -23 -4 -23 -10 0 -5 -11 -10 -23
-10 -46 0 -57 -27 -57 -138 0 -56 4 -102 9 -102 13 0 67 -55 75 -76 5 -14 15
-16 51 -11 25 4 56 2 70 -3 17 -7 24 -7 20 0 -3 6 -1 10 4 10 6 0 11 6 11 13
0 7 9 20 19 29 24 20 61 32 61 20 0 -6 7 -12 14 -15 10 -4 13 -1 10 8 -4 11 5
16 34 21 31 5 42 12 46 29 4 14 18 27 35 33 25 9 29 8 24 -4 -3 -9 1 -14 12
-14 9 0 13 5 9 11 -5 8 1 10 19 5 14 -3 29 -2 32 4 3 5 0 7 -8 4 -8 -3 -18 -1
-22 5 -3 7 2 11 14 11 12 0 21 4 21 9 0 10 58 71 67 71 3 0 12 -8 20 -17 13
-16 14 -16 10 -1 -4 12 3 18 29 22 20 4 34 13 34 21 0 9 10 15 23 16 12 0 31
5 42 10 15 7 10 8 -22 6 -24 -1 -43 1 -43 5 0 5 6 9 13 9 6 1 19 3 27 4 8 1
21 3 28 4 8 1 12 25 12 82 l0 81 90 -4 c50 -1 86 -1 80 0 -5 2 -10 21 -10 43
l0 39 90 0 c81 0 89 -2 83 -17 -5 -15 -3 -16 8 -5 7 6 13 24 14 39 0 14 7 28
15 31 12 4 13 2 3 -9 -7 -7 -13 -18 -13 -23 0 -6 7 -2 15 8 8 10 11 24 8 29
-4 6 -5 32 -4 59 2 43 -2 52 -33 84 -35 36 -38 37 -123 41 -64 2 -97 -1 -120
-11z"/>
<path d="M4833 2410 c2 -8 7 -24 11 -36 4 -14 2 -21 -7 -21 -9 0 -12 7 -10 17
5 17 -24 36 -36 24 -3 -4 -1 -9 6 -11 8 -3 10 -15 6 -34 -5 -28 -5 -29 36 -29
22 0 41 4 41 9 0 5 -12 29 -26 52 -14 24 -24 37 -21 29z"/>
<path d="M5265 2408 c8 -20 -10 -25 -18 -5 -4 9 -6 9 -6 0 -1 -18 19 -27 32
-14 8 8 8 14 -2 24 -10 10 -11 9 -6 -5z"/>
<path d="M6165 2409 c-4 -6 -5 -12 -2 -15 2 -3 7 2 10 11 7 17 1 20 -8 4z"/>
<path d="M3974 2399 c-3 -6 -2 -15 3 -20 5 -5 9 -1 9 11 0 23 -2 24 -12 9z"/>
<path d="M5326 2394 c-8 -22 -4 -25 11 -9 7 8 9 16 4 19 -5 3 -12 -1 -15 -10z"/>
<path d="M2180 2380 c0 -5 5 -10 11 -10 5 0 7 5 4 10 -3 6 -8 10 -11 10 -2 0
-4 -4 -4 -10z"/>
<path d="M3533 2370 c1 -19 8 -25 27 -27 14 -1 18 0 9 3 -9 3 -21 15 -28 27
-11 22 -11 22 -8 -3z"/>
<path d="M3746 2374 c-4 -9 -4 -19 -1 -22 3 -3 5 1 5 8 0 11 3 11 12 2 16 -16
41 -16 32 1 -6 9 -4 9 7 1 23 -18 47 -13 41 8 -5 21 -57 26 -65 6 -4 -10 -6
-10 -6 0 -1 17 -18 15 -25 -4z"/>
<path d="M4146 2363 c-6 -14 -5 -15 5 -6 7 7 10 15 7 18 -3 3 -9 -2 -12 -12z"/>
<path d="M6170 2369 c0 -5 5 -7 10 -4 6 3 10 8 10 11 0 2 -4 4 -10 4 -5 0 -10
-5 -10 -11z"/>
<path d="M3950 2359 c0 -5 5 -7 10 -4 6 3 10 8 10 11 0 2 -4 4 -10 4 -5 0 -10
-5 -10 -11z"/>
<path d="M3015 2350 c-19 -8 -19 -9 3 -9 12 -1 22 4 22 9 0 6 -1 10 -2 9 -2 0
-12 -4 -23 -9z"/>
<path d="M3678 2353 c7 -3 16 -2 19 1 4 3 -2 6 -13 5 -11 0 -14 -3 -6 -6z"/>
<path d="M3680 2343 c-19 -2 -42 -7 -50 -10 -8 -4 -36 -5 -62 -4 -37 2 -48 -1
-48 -12 0 -17 82 -28 103 -15 7 4 35 8 62 8 46 0 86 13 75 23 -10 9 -46 13
-80 10z"/>
<path d="M2285 2320 c3 -5 8 -10 11 -10 2 0 4 5 4 10 0 6 -5 10 -11 10 -5 0
-7 -4 -4 -10z"/>
<path d="M2260 2301 c0 -5 5 -13 10 -16 6 -3 10 -2 10 4 0 5 -4 13 -10 16 -5
3 -10 2 -10 -4z"/>
<path d="M6105 2270 c-3 -5 -1 -10 4 -10 6 0 11 5 11 10 0 6 -2 10 -4 10 -3 0
-8 -4 -11 -10z"/>
<path d="M2306 2247 c3 -10 9 -15 12 -12 3 3 0 11 -7 18 -10 9 -11 8 -5 -6z"/>
<path d="M5920 2163 c0 -13 3 -14 12 -5 7 7 18 12 25 12 11 0 11 -5 2 -21 -9
-17 -8 -20 3 -17 7 3 14 14 16 26 3 19 -1 22 -27 22 -23 0 -31 -5 -31 -17z"/>
<path d="M2427 2159 c7 -7 15 -10 18 -7 3 3 -2 9 -12 12 -14 6 -15 5 -6 -5z"/>
<path d="M2460 2130 c0 -5 5 -10 11 -10 5 0 7 5 4 10 -3 6 -8 10 -11 10 -2 0
-4 -4 -4 -10z"/>
<path d="M5919 2093 c-13 -17 -13 -17 6 -3 11 8 22 16 24 17 2 2 0 3 -6 3 -6
0 -17 -8 -24 -17z"/>
<path d="M5870 2089 c0 -5 5 -7 10 -4 6 3 10 8 10 11 0 2 -4 4 -10 4 -5 0 -10
-5 -10 -11z"/>
<path d="M5865 2060 c-3 -5 1 -10 9 -10 9 0 16 5 16 10 0 6 -4 10 -9 10 -6 0
-13 -4 -16 -10z"/>
<path d="M5836 2024 c-5 -14 -4 -15 9 -4 17 14 19 20 6 20 -5 0 -12 -7 -15
-16z"/>
<path d="M5778 2023 c-10 -2 -18 -9 -18 -14 0 -13 12 -11 34 6 20 15 16 17
-16 8z"/>
<path d="M5693 1934 c0 -17 21 -18 35 -1 8 9 5 12 -12 13 -13 1 -23 -4 -23
-12z"/>
<path d="M2745 1890 c3 -5 10 -10 16 -10 5 0 9 5 9 10 0 6 -7 10 -16 10 -8 0
-12 -4 -9 -10z"/>
<path d="M3158 1683 c7 -3 16 -2 19 1 4 3 -2 6 -13 5 -11 0 -14 -3 -6 -6z"/>
<path d="M5169 1673 c-19 -5 -44 -53 -28 -53 5 0 12 7 15 15 4 8 15 15 25 15
10 0 19 7 19 15 0 15 -3 16 -31 8z"/>
<path d="M3250 1639 l-25 -7 25 -1 c14 -1 34 -7 45 -15 23 -16 110 -17 94 -1
-5 5 -31 11 -56 11 -25 1 -48 6 -52 11 -3 5 -17 6 -31 2z"/>
<path d="M4480 1615 c0 -11 -11 -15 -40 -15 -29 0 -40 -4 -40 -15 0 -8 -7 -15
-15 -15 -8 0 -15 -4 -15 -10 0 -5 7 -10 15 -10 8 0 15 -5 15 -11 0 -7 -15 -10
-40 -7 -25 2 -39 0 -37 -7 2 -5 36 -11 76 -13 63 -2 74 -6 78 -22 5 -20 53
-30 53 -12 0 5 30 9 68 11 37 1 83 6 102 11 32 9 30 9 -15 5 -41 -4 -46 -2
-30 7 19 11 19 11 0 19 -39 15 11 10 55 -6 57 -20 64 -18 15 6 -36 18 -37 20
-10 15 17 -3 24 -3 18 0 -7 3 -13 21 -13 39 0 21 -6 35 -16 39 -9 3 -63 6
-120 6 -86 0 -104 -3 -104 -15z m150 -79 c0 -2 -16 -6 -35 -8 -19 -2 -35 0
-35 4 0 4 16 8 35 8 19 0 35 -2 35 -4z"/>
<path d="M5035 1611 c-7 -12 12 -24 25 -16 11 7 4 25 -10 25 -5 0 -11 -4 -15
-9z"/>
<path d="M3355 1590 c3 -5 13 -10 21 -10 8 0 12 5 9 10 -3 6 -13 10 -21 10 -8
0 -12 -4 -9 -10z"/>
<path d="M4968 1573 c7 -3 16 -2 19 1 4 3 -2 6 -13 5 -11 0 -14 -3 -6 -6z"/>
<path d="M3808 1533 c7 -3 16 -2 19 1 4 3 -2 6 -13 5 -11 0 -14 -3 -6 -6z"/>
<path d="M4242 1482 c4 -15 0 -17 -26 -14 -17 3 -28 1 -24 -3 3 -3 44 -8 90
-9 45 -2 73 -1 61 1 -15 3 -23 12 -23 24 0 16 -7 19 -41 19 -35 0 -41 -3 -37
-18z"/>
</g>
</svg>
